<?xml version="1.0" encoding="utf-8"?>
<svg version="1.1" xmlns:xlink="http://www.w3.org/1999/xlink" width="16px" height="18px" xmlns="http://www.w3.org/2000/svg">
  <defs>
    <pattern id="BGPattern" patternUnits="userSpaceOnUse" alignment="0 0" imageRepeat="None" />
    <mask fill="white" id="Clip29">
      <path d="M 1.2307692307692308 6.428571428571428  L 1.2307692307692308 16.714285714285715  L 14.76923076923077 16.714285714285715  L 14.76923076923077 6.428571428571428  L 1.2307692307692308 6.428571428571428  Z M 4.836538461538462 4.731026785714285  C 4.894230769230769 4.670758928571428  4.923076923076923 4.593749999999998  4.923076923076923 4.5  L 4.923076923076923 1.6071428571428574  C 4.923076923076923 1.5133928571428548  4.894230769230769 1.4363839285714277  4.836538461538462 1.3761160714285723  C 4.778846153846154 1.3158482142857149  4.705128205128205 1.2857142857142851  4.615384615384615 1.2857142857142851  L 4 1.2857142857142851  C 3.910256410256411 1.2857142857142851  3.836538461538462 1.3158482142857149  3.7788461538461537 1.3761160714285723  C 3.7211538461538463 1.4363839285714277  3.6923076923076925 1.5133928571428548  3.6923076923076925 1.6071428571428574  L 3.6923076923076925 4.5  C 3.6923076923076925 4.593749999999998  3.7211538461538463 4.670758928571428  3.7788461538461537 4.731026785714285  C 3.836538461538462 4.791294642857142  3.910256410256411 4.821428571428572  4 4.821428571428572  L 4.615384615384615 4.821428571428572  C 4.705128205128205 4.821428571428572  4.778846153846154 4.791294642857142  4.836538461538462 4.731026785714285  Z M 12.221153846153847 4.731026785714285  C 12.278846153846153 4.670758928571428  12.307692307692308 4.593749999999998  12.307692307692308 4.5  L 12.307692307692308 1.6071428571428574  C 12.307692307692308 1.5133928571428548  12.278846153846153 1.4363839285714277  12.221153846153847 1.3761160714285723  C 12.163461538461538 1.3158482142857149  12.089743589743591 1.2857142857142851  12 1.2857142857142851  L 11.384615384615385 1.2857142857142851  C 11.294871794871796 1.2857142857142851  11.221153846153847 1.3158482142857149  11.163461538461538 1.3761160714285723  C 11.10576923076923 1.4363839285714277  11.076923076923077 1.5133928571428548  11.076923076923077 1.6071428571428574  L 11.076923076923077 4.5  C 11.076923076923077 4.593749999999998  11.10576923076923 4.670758928571428  11.163461538461538 4.731026785714285  C 11.221153846153847 4.791294642857142  11.294871794871796 4.821428571428572  11.384615384615385 4.821428571428572  L 12 4.821428571428572  C 12.089743589743591 4.821428571428572  12.163461538461538 4.791294642857142  12.221153846153847 4.731026785714285  Z M 15.634615384615385 2.953125  C 15.87820512820513 3.2075892857142856  16 3.508928571428571  16 3.8571428571428577  L 16 16.714285714285715  C 16 17.0625  15.87820512820513 17.363839285714285  15.634615384615385 17.618303571428573  C 15.391025641025642 17.872767857142858  15.102564102564104 18  14.76923076923077 18  L 1.2307692307692308 18  C 0.8974358974358976 18  0.608974358974359 17.872767857142858  0.36538461538461536 17.618303571428573  C 0.12179487179487179 17.363839285714285  0 17.0625  0 16.714285714285715  L 0 3.8571428571428577  C 0 3.508928571428571  0.12179487179487179 3.2075892857142856  0.36538461538461536 2.953125  C 0.608974358974359 2.698660714285712  0.8974358974358976 2.571428571428572  1.2307692307692308 2.571428571428572  L 2.4615384615384617 2.571428571428572  L 2.4615384615384617 1.6071428571428574  C 2.4615384615384617 1.1651785714285723  2.6121794871794872 0.7868303571428561  2.9134615384615383 0.47209821428571486  C 3.2147435897435903 0.15736607142857162  3.576923076923077 0  4 0  L 4.615384615384615 0  C 5.038461538461538 0  5.400641025641026 0.15736607142857162  5.701923076923077 0.47209821428571486  C 6.003205128205129 0.7868303571428561  6.153846153846154 1.1651785714285723  6.153846153846154 1.6071428571428574  L 6.153846153846154 2.571428571428572  L 9.846153846153847 2.571428571428572  L 9.846153846153847 1.6071428571428574  C 9.846153846153847 1.1651785714285723  9.996794871794872 0.7868303571428561  10.298076923076923 0.47209821428571486  C 10.599358974358976 0.15736607142857162  10.961538461538462 0  11.384615384615385 0  L 12 0  C 12.423076923076923 0  12.78525641025641 0.15736607142857162  13.086538461538462 0.47209821428571486  C 13.387820512820515 0.7868303571428561  13.538461538461538 1.1651785714285723  13.538461538461538 1.6071428571428574  L 13.538461538461538 2.571428571428572  L 14.76923076923077 2.571428571428572  C 15.102564102564104 2.571428571428572  15.391025641025642 2.698660714285712  15.634615384615385 2.953125  Z " fill-rule="evenodd" />
    </mask>
  </defs>
  <g transform="matrix(1 0 0 1 -2352 -541 )">
    <path d="M 1.2307692307692308 6.428571428571428  L 1.2307692307692308 16.714285714285715  L 14.76923076923077 16.714285714285715  L 14.76923076923077 6.428571428571428  L 1.2307692307692308 6.428571428571428  Z M 4.836538461538462 4.731026785714285  C 4.894230769230769 4.670758928571428  4.923076923076923 4.593749999999998  4.923076923076923 4.5  L 4.923076923076923 1.6071428571428574  C 4.923076923076923 1.5133928571428548  4.894230769230769 1.4363839285714277  4.836538461538462 1.3761160714285723  C 4.778846153846154 1.3158482142857149  4.705128205128205 1.2857142857142851  4.615384615384615 1.2857142857142851  L 4 1.2857142857142851  C 3.910256410256411 1.2857142857142851  3.836538461538462 1.3158482142857149  3.7788461538461537 1.3761160714285723  C 3.7211538461538463 1.4363839285714277  3.6923076923076925 1.5133928571428548  3.6923076923076925 1.6071428571428574  L 3.6923076923076925 4.5  C 3.6923076923076925 4.593749999999998  3.7211538461538463 4.670758928571428  3.7788461538461537 4.731026785714285  C 3.836538461538462 4.791294642857142  3.910256410256411 4.821428571428572  4 4.821428571428572  L 4.615384615384615 4.821428571428572  C 4.705128205128205 4.821428571428572  4.778846153846154 4.791294642857142  4.836538461538462 4.731026785714285  Z M 12.221153846153847 4.731026785714285  C 12.278846153846153 4.670758928571428  12.307692307692308 4.593749999999998  12.307692307692308 4.5  L 12.307692307692308 1.6071428571428574  C 12.307692307692308 1.5133928571428548  12.278846153846153 1.4363839285714277  12.221153846153847 1.3761160714285723  C 12.163461538461538 1.3158482142857149  12.089743589743591 1.2857142857142851  12 1.2857142857142851  L 11.384615384615385 1.2857142857142851  C 11.294871794871796 1.2857142857142851  11.221153846153847 1.3158482142857149  11.163461538461538 1.3761160714285723  C 11.10576923076923 1.4363839285714277  11.076923076923077 1.5133928571428548  11.076923076923077 1.6071428571428574  L 11.076923076923077 4.5  C 11.076923076923077 4.593749999999998  11.10576923076923 4.670758928571428  11.163461538461538 4.731026785714285  C 11.221153846153847 4.791294642857142  11.294871794871796 4.821428571428572  11.384615384615385 4.821428571428572  L 12 4.821428571428572  C 12.089743589743591 4.821428571428572  12.163461538461538 4.791294642857142  12.221153846153847 4.731026785714285  Z M 15.634615384615385 2.953125  C 15.87820512820513 3.2075892857142856  16 3.508928571428571  16 3.8571428571428577  L 16 16.714285714285715  C 16 17.0625  15.87820512820513 17.363839285714285  15.634615384615385 17.618303571428573  C 15.391025641025642 17.872767857142858  15.102564102564104 18  14.76923076923077 18  L 1.2307692307692308 18  C 0.8974358974358976 18  0.608974358974359 17.872767857142858  0.36538461538461536 17.618303571428573  C 0.12179487179487179 17.363839285714285  0 17.0625  0 16.714285714285715  L 0 3.8571428571428577  C 0 3.508928571428571  0.12179487179487179 3.2075892857142856  0.36538461538461536 2.953125  C 0.608974358974359 2.698660714285712  0.8974358974358976 2.571428571428572  1.2307692307692308 2.571428571428572  L 2.4615384615384617 2.571428571428572  L 2.4615384615384617 1.6071428571428574  C 2.4615384615384617 1.1651785714285723  2.6121794871794872 0.7868303571428561  2.9134615384615383 0.47209821428571486  C 3.2147435897435903 0.15736607142857162  3.576923076923077 0  4 0  L 4.615384615384615 0  C 5.038461538461538 0  5.400641025641026 0.15736607142857162  5.701923076923077 0.47209821428571486  C 6.003205128205129 0.7868303571428561  6.153846153846154 1.1651785714285723  6.153846153846154 1.6071428571428574  L 6.153846153846154 2.571428571428572  L 9.846153846153847 2.571428571428572  L 9.846153846153847 1.6071428571428574  C 9.846153846153847 1.1651785714285723  9.996794871794872 0.7868303571428561  10.298076923076923 0.47209821428571486  C 10.599358974358976 0.15736607142857162  10.961538461538462 0  11.384615384615385 0  L 12 0  C 12.423076923076923 0  12.78525641025641 0.15736607142857162  13.086538461538462 0.47209821428571486  C 13.387820512820515 0.7868303571428561  13.538461538461538 1.1651785714285723  13.538461538461538 1.6071428571428574  L 13.538461538461538 2.571428571428572  L 14.76923076923077 2.571428571428572  C 15.102564102564104 2.571428571428572  15.391025641025642 2.698660714285712  15.634615384615385 2.953125  Z " fill-rule="nonzero" fill="rgba(85, 85, 85, 1)" stroke="none" transform="matrix(1 0 0 1 2352 541 )" class="fill" />
    <path d="M 1.2307692307692308 6.428571428571428  L 1.2307692307692308 16.714285714285715  L 14.76923076923077 16.714285714285715  L 14.76923076923077 6.428571428571428  L 1.2307692307692308 6.428571428571428  Z " stroke-width="0" stroke-dasharray="0" stroke="rgba(255, 255, 255, 0)" fill="none" transform="matrix(1 0 0 1 2352 541 )" class="stroke" mask="url(#Clip29)" />
    <path d="M 4.836538461538462 4.731026785714285  C 4.894230769230769 4.670758928571428  4.923076923076923 4.593749999999998  4.923076923076923 4.5  L 4.923076923076923 1.6071428571428574  C 4.923076923076923 1.5133928571428548  4.894230769230769 1.4363839285714277  4.836538461538462 1.3761160714285723  C 4.778846153846154 1.3158482142857149  4.705128205128205 1.2857142857142851  4.615384615384615 1.2857142857142851  L 4 1.2857142857142851  C 3.910256410256411 1.2857142857142851  3.836538461538462 1.3158482142857149  3.7788461538461537 1.3761160714285723  C 3.7211538461538463 1.4363839285714277  3.6923076923076925 1.5133928571428548  3.6923076923076925 1.6071428571428574  L 3.6923076923076925 4.5  C 3.6923076923076925 4.593749999999998  3.7211538461538463 4.670758928571428  3.7788461538461537 4.731026785714285  C 3.836538461538462 4.791294642857142  3.910256410256411 4.821428571428572  4 4.821428571428572  L 4.615384615384615 4.821428571428572  C 4.705128205128205 4.821428571428572  4.778846153846154 4.791294642857142  4.836538461538462 4.731026785714285  Z " stroke-width="0" stroke-dasharray="0" stroke="rgba(255, 255, 255, 0)" fill="none" transform="matrix(1 0 0 1 2352 541 )" class="stroke" mask="url(#Clip29)" />
    <path d="M 12.221153846153847 4.731026785714285  C 12.278846153846153 4.670758928571428  12.307692307692308 4.593749999999998  12.307692307692308 4.5  L 12.307692307692308 1.6071428571428574  C 12.307692307692308 1.5133928571428548  12.278846153846153 1.4363839285714277  12.221153846153847 1.3761160714285723  C 12.163461538461538 1.3158482142857149  12.089743589743591 1.2857142857142851  12 1.2857142857142851  L 11.384615384615385 1.2857142857142851  C 11.294871794871796 1.2857142857142851  11.221153846153847 1.3158482142857149  11.163461538461538 1.3761160714285723  C 11.10576923076923 1.4363839285714277  11.076923076923077 1.5133928571428548  11.076923076923077 1.6071428571428574  L 11.076923076923077 4.5  C 11.076923076923077 4.593749999999998  11.10576923076923 4.670758928571428  11.163461538461538 4.731026785714285  C 11.221153846153847 4.791294642857142  11.294871794871796 4.821428571428572  11.384615384615385 4.821428571428572  L 12 4.821428571428572  C 12.089743589743591 4.821428571428572  12.163461538461538 4.791294642857142  12.221153846153847 4.731026785714285  Z " stroke-width="0" stroke-dasharray="0" stroke="rgba(255, 255, 255, 0)" fill="none" transform="matrix(1 0 0 1 2352 541 )" class="stroke" mask="url(#Clip29)" />
    <path d="M 15.634615384615385 2.953125  C 15.87820512820513 3.2075892857142856  16 3.508928571428571  16 3.8571428571428577  L 16 16.714285714285715  C 16 17.0625  15.87820512820513 17.363839285714285  15.634615384615385 17.618303571428573  C 15.391025641025642 17.872767857142858  15.102564102564104 18  14.76923076923077 18  L 1.2307692307692308 18  C 0.8974358974358976 18  0.608974358974359 17.872767857142858  0.36538461538461536 17.618303571428573  C 0.12179487179487179 17.363839285714285  0 17.0625  0 16.714285714285715  L 0 3.8571428571428577  C 0 3.508928571428571  0.12179487179487179 3.2075892857142856  0.36538461538461536 2.953125  C 0.608974358974359 2.698660714285712  0.8974358974358976 2.571428571428572  1.2307692307692308 2.571428571428572  L 2.4615384615384617 2.571428571428572  L 2.4615384615384617 1.6071428571428574  C 2.4615384615384617 1.1651785714285723  2.6121794871794872 0.7868303571428561  2.9134615384615383 0.47209821428571486  C 3.2147435897435903 0.15736607142857162  3.576923076923077 0  4 0  L 4.615384615384615 0  C 5.038461538461538 0  5.400641025641026 0.15736607142857162  5.701923076923077 0.47209821428571486  C 6.003205128205129 0.7868303571428561  6.153846153846154 1.1651785714285723  6.153846153846154 1.6071428571428574  L 6.153846153846154 2.571428571428572  L 9.846153846153847 2.571428571428572  L 9.846153846153847 1.6071428571428574  C 9.846153846153847 1.1651785714285723  9.996794871794872 0.7868303571428561  10.298076923076923 0.47209821428571486  C 10.599358974358976 0.15736607142857162  10.961538461538462 0  11.384615384615385 0  L 12 0  C 12.423076923076923 0  12.78525641025641 0.15736607142857162  13.086538461538462 0.47209821428571486  C 13.387820512820515 0.7868303571428561  13.538461538461538 1.1651785714285723  13.538461538461538 1.6071428571428574  L 13.538461538461538 2.571428571428572  L 14.76923076923077 2.571428571428572  C 15.102564102564104 2.571428571428572  15.391025641025642 2.698660714285712  15.634615384615385 2.953125  Z " stroke-width="0" stroke-dasharray="0" stroke="rgba(255, 255, 255, 0)" fill="none" transform="matrix(1 0 0 1 2352 541 )" class="stroke" mask="url(#Clip29)" />
  </g>
</svg>