<?xml version="1.0" encoding="utf-8"?>
<svg version="1.1" xmlns:xlink="http://www.w3.org/1999/xlink" width="37px" height="37px" xmlns="http://www.w3.org/2000/svg">
  <defs>
    <pattern id="BGPattern" patternUnits="userSpaceOnUse" alignment="0 0" imageRepeat="None" />
    <mask fill="white" id="Clip2">
      <path d="M 6.9375 0  L 30.0625 0  C 31.97352430555556 0  33.60753038194445 0.6784939236111088  34.964518229166664 2.035481770833335  C 36.321506076388886 3.3924696180555522  37 5.026475694444439  37 6.9375  L 37 30.0625  C 37 31.973524305555554  36.321506076388886 33.60753038194445  34.964518229166664 34.964518229166664  C 33.60753038194445 36.321506076388886  31.97352430555556 37  30.0625 37  L 25 37  L 25 22.667317708333332  L 30.327473958333336 22.667317708333332  L 31.050130208333336 17.078776041666664  L 25.533854166666664 17.078776041666664  L 25.533854166666664 13.513671875  C 25.533854166666664 12.61436631944444  25.72254774305556 11.939887152777775  26.099934895833336 11.490234375  C 26.477322048611114 11.040581597222221  27.212022569444446 10.815755208333334  28.304036458333336 10.815755208333334  L 31.242838541666664 10.791666666666666  L 31.242838541666664 5.805338541666665  C 30.231119791666664 5.660807291666665  28.801866319444446 5.588541666666665  26.955078125 5.588541666666665  C 24.771050347222225 5.588541666666665  23.024631076388893 6.230902777777774  21.7158203125 7.515625  C 20.407009548611114 8.800347222222221  19.752604166666664 10.615017361111109  19.752604166666664 12.959635416666666  L 19.752604166666664 17.078776041666664  L 14.934895833333332 17.078776041666664  L 14.934895833333332 22.667317708333332  L 19.752604166666664 22.667317708333332  L 19.752604166666664 37  L 6.9375 37  C 5.026475694444445 37  3.392469618055556 36.321506076388886  2.0354817708333335 34.964518229166664  C 0.678493923611111 33.60753038194445  0 31.973524305555554  0 30.0625  L 0 6.9375  C 0 5.026475694444439  0.678493923611111 3.3924696180555522  2.0354817708333335 2.035481770833335  C 3.392469618055556 0.6784939236111088  5.026475694444445 0  6.9375 0  Z " fill-rule="evenodd" />
    </mask>
  </defs>
  <g transform="matrix(1 0 0 1 -2564 -1974 )">
    <path d="M 6.9375 0  L 30.0625 0  C 31.97352430555556 0  33.60753038194445 0.6784939236111088  34.964518229166664 2.035481770833335  C 36.321506076388886 3.3924696180555522  37 5.026475694444439  37 6.9375  L 37 30.0625  C 37 31.973524305555554  36.321506076388886 33.60753038194445  34.964518229166664 34.964518229166664  C 33.60753038194445 36.321506076388886  31.97352430555556 37  30.0625 37  L 25 37  L 25 22.667317708333332  L 30.327473958333336 22.667317708333332  L 31.050130208333336 17.078776041666664  L 25.533854166666664 17.078776041666664  L 25.533854166666664 13.513671875  C 25.533854166666664 12.61436631944444  25.72254774305556 11.939887152777775  26.099934895833336 11.490234375  C 26.477322048611114 11.040581597222221  27.212022569444446 10.815755208333334  28.304036458333336 10.815755208333334  L 31.242838541666664 10.791666666666666  L 31.242838541666664 5.805338541666665  C 30.231119791666664 5.660807291666665  28.801866319444446 5.588541666666665  26.955078125 5.588541666666665  C 24.771050347222225 5.588541666666665  23.024631076388893 6.230902777777774  21.7158203125 7.515625  C 20.407009548611114 8.800347222222221  19.752604166666664 10.615017361111109  19.752604166666664 12.959635416666666  L 19.752604166666664 17.078776041666664  L 14.934895833333332 17.078776041666664  L 14.934895833333332 22.667317708333332  L 19.752604166666664 22.667317708333332  L 19.752604166666664 37  L 6.9375 37  C 5.026475694444445 37  3.392469618055556 36.321506076388886  2.0354817708333335 34.964518229166664  C 0.678493923611111 33.60753038194445  0 31.973524305555554  0 30.0625  L 0 6.9375  C 0 5.026475694444439  0.678493923611111 3.3924696180555522  2.0354817708333335 2.035481770833335  C 3.392469618055556 0.6784939236111088  5.026475694444445 0  6.9375 0  Z " fill-rule="nonzero" fill="rgba(85, 85, 85, 1)" stroke="none" transform="matrix(1 0 0 1 2564 1974 )" class="fill" />
    <path d="M 6.9375 0  L 30.0625 0  C 31.97352430555556 0  33.60753038194445 0.6784939236111088  34.964518229166664 2.035481770833335  C 36.321506076388886 3.3924696180555522  37 5.026475694444439  37 6.9375  L 37 30.0625  C 37 31.973524305555554  36.321506076388886 33.60753038194445  34.964518229166664 34.964518229166664  C 33.60753038194445 36.321506076388886  31.97352430555556 37  30.0625 37  L 25 37  L 25 22.667317708333332  L 30.327473958333336 22.667317708333332  L 31.050130208333336 17.078776041666664  L 25.533854166666664 17.078776041666664  L 25.533854166666664 13.513671875  C 25.533854166666664 12.61436631944444  25.72254774305556 11.939887152777775  26.099934895833336 11.490234375  C 26.477322048611114 11.040581597222221  27.212022569444446 10.815755208333334  28.304036458333336 10.815755208333334  L 31.242838541666664 10.791666666666666  L 31.242838541666664 5.805338541666665  C 30.231119791666664 5.660807291666665  28.801866319444446 5.588541666666665  26.955078125 5.588541666666665  C 24.771050347222225 5.588541666666665  23.024631076388893 6.230902777777774  21.7158203125 7.515625  C 20.407009548611114 8.800347222222221  19.752604166666664 10.615017361111109  19.752604166666664 12.959635416666666  L 19.752604166666664 17.078776041666664  L 14.934895833333332 17.078776041666664  L 14.934895833333332 22.667317708333332  L 19.752604166666664 22.667317708333332  L 19.752604166666664 37  L 6.9375 37  C 5.026475694444445 37  3.392469618055556 36.321506076388886  2.0354817708333335 34.964518229166664  C 0.678493923611111 33.60753038194445  0 31.973524305555554  0 30.0625  L 0 6.9375  C 0 5.026475694444439  0.678493923611111 3.3924696180555522  2.0354817708333335 2.035481770833335  C 3.392469618055556 0.6784939236111088  5.026475694444445 0  6.9375 0  Z " stroke-width="0" stroke-dasharray="0" stroke="rgba(255, 255, 255, 0)" fill="none" transform="matrix(1 0 0 1 2564 1974 )" class="stroke" mask="url(#Clip2)" />
  </g>
</svg>