<?xml version="1.0" encoding="utf-8"?>
<svg version="1.1" xmlns:xlink="http://www.w3.org/1999/xlink" width="28px" height="32px" xmlns="http://www.w3.org/2000/svg">
  <defs>
    <pattern id="BGPattern" patternUnits="userSpaceOnUse" alignment="0 0" imageRepeat="None" />
    <mask fill="white" id="Clip1">
      <path d="M 11.83984375 18.705357142857142  C 11.918836805555557 18.99702380952381  11.946180555555557 19.17857142857143  11.921875 19.25  C 11.909722222222223 19.285714285714285  11.833767361111112 19.282738095238095  11.694010416666668 19.24107142857143  C 11.554253472222223 19.19940476190476  11.362847222222223 19.13095238095238  11.119791666666668 19.035714285714285  L 10.755208333333332 18.875  C 10.220486111111112 18.63690476190476  9.69184027777778 18.345238095238095  9.169270833333332 18  C 9.08420138888889 17.94047619047619  8.835069444444445 17.75297619047619  8.421875 17.4375  C 8.008680555555557 17.12202380952381  7.777777777777779 16.95238095238095  7.729166666666667 16.92857142857143  C 6.914930555555556 18.154761904761905  6.100694444444445 19.232142857142858  5.286458333333334 20.160714285714285  C 4.302083333333334 21.291666666666664  3.6640625 21.94642857142857  3.372395833333333 22.125  C 3.3237847222222223 22.148809523809522  3.2052951388888893 22.172619047619044  3.016927083333333 22.19642857142857  C 2.828559027777778 22.220238095238095  2.716145833333333 22.220238095238095  2.6796875 22.19642857142857  C 2.752604166666667 22.148809523809522  3.250868055555556 21.601190476190474  4.174479166666666 20.55357142857143  C 4.4296875 20.267857142857142  4.94921875 19.58333333333333  5.733072916666666 18.5  C 6.516927083333334 17.416666666666664  6.993923611111112 16.714285714285715  7.1640625 16.392857142857142  C 7.370659722222223 16.035714285714285  7.680555555555556 15.449404761904763  8.09375 14.633928571428573  C 8.506944444444445 13.81845238095238  8.725694444444445 13.357142857142858  8.75 13.25  C 8.652777777777779 13.238095238095237  7.984375 13.434523809523807  6.744791666666666 13.839285714285715  C 6.647569444444445 13.863095238095237  6.48046875 13.907738095238095  6.243489583333334 13.973214285714285  C 6.006510416666666 14.038690476190474  5.796875 14.095238095238095  5.614583333333334 14.142857142857142  C 5.432291666666666 14.19047619047619  5.328993055555556 14.220238095238095  5.3046875 14.232142857142858  C 5.280381944444445 14.25595238095238  5.268229166666666 14.31845238095238  5.268229166666666 14.419642857142858  C 5.268229166666666 14.520833333333332  5.262152777777779 14.577380952380953  5.25 14.589285714285715  C 5.189236111111112 14.708333333333332  5.000868055555556 14.797619047619047  4.684895833333334 14.857142857142858  C 4.405381944444445 14.94047619047619  4.119791666666667 14.94047619047619  3.828125 14.857142857142858  C 3.609375 14.809523809523807  3.4392361111111107 14.684523809523807  3.317708333333333 14.482142857142858  C 3.2690972222222223 14.410714285714285  3.238715277777778 14.273809523809522  3.2265625 14.071428571428573  C 3.299479166666667 14.047619047619047  3.448350694444445 14.017857142857142  3.6731770833333335 13.982142857142858  C 3.8980034722222228 13.946428571428573  4.077256944444445 13.910714285714285  4.2109375 13.875  C 4.915798611111112 13.684523809523807  5.553819444444445 13.494047619047617  6.125 13.303571428571427  C 7.340277777777779 12.88690476190476  7.9600694444444455 12.678571428571427  7.984375 12.678571428571427  C 8.105902777777779 12.654761904761902  8.3671875 12.538690476190474  8.768229166666668 12.330357142857142  C 9.169270833333332 12.122023809523807  9.436631944444445 11.994047619047617  9.5703125 11.946428571428573  C 9.6796875 11.910714285714285  9.810329861111112 11.863095238095237  9.962239583333332 11.803571428571427  C 10.114149305555557 11.744047619047617  10.202256944444445 11.711309523809522  10.2265625 11.705357142857142  C 10.250868055555557 11.69940476190476  10.28732638888889 11.702380952380953  10.3359375 11.714285714285715  C 10.360243055555557 11.857142857142858  10.354166666666668 12.053571428571427  10.317708333333332 12.303571428571427  C 10.317708333333332 12.327380952380953  10.241753472222223 12.488095238095237  10.08984375 12.785714285714285  C 9.93793402777778 13.083333333333332  9.776909722222223 13.401785714285715  9.606770833333332 13.741071428571427  C 9.436631944444445 14.080357142857142  9.333333333333332 14.279761904761905  9.296875 14.339285714285715  C 8.993055555555557 14.934523809523807  8.52517361111111 15.714285714285715  7.893229166666667 16.67857142857143  L 9.059895833333332 17.17857142857143  C 9.205729166666668 17.25  9.65842013888889 17.44047619047619  10.41796875 17.75  C 11.177517361111112 18.05952380952381  11.587673611111112 18.226190476190474  11.6484375 18.25  C 11.697048611111112 18.26190476190476  11.760850694444445 18.413690476190474  11.83984375 18.705357142857142  Z M 7.802083333333333 10.267857142857142  C 8.008680555555557 10.267857142857142  8.136284722222223 10.369047619047617  8.184895833333332 10.571428571428573  C 8.221354166666668 10.75  8.19704861111111 10.916666666666664  8.111979166666668 11.071428571428573  C 7.966145833333333 11.345238095238095  7.662326388888889 11.571428571428573  7.200520833333333 11.75  C 6.8359375 11.892857142857142  6.471354166666666 11.964285714285715  6.106770833333334 11.964285714285715  C 5.790798611111112 11.928571428571427  5.493055555555556 11.773809523809522  5.213541666666666 11.5  C 5.043402777777779 11.321428571428573  4.934027777777779 11.077380952380953  4.885416666666666 10.767857142857142  L 4.903645833333334 10.714285714285715  C 4.940104166666666 10.75  5.05859375 10.779761904761902  5.259114583333334 10.803571428571427  C 5.459635416666666 10.827380952380953  5.620659722222222 10.827380952380953  5.7421875 10.803571428571427  C 5.863715277777779 10.779761904761902  6.216145833333334 10.684523809523807  6.799479166666666 10.517857142857142  C 7.236979166666667 10.375  7.571180555555556 10.291666666666664  7.802083333333333 10.267857142857142  Z M 19.5234375 16.17857142857143  L 20.908854166666664 12.875  L 22.057291666666664 16.92857142857143  L 19.5234375 16.17857142857143  Z M 1 8.75  L 1 27.160714285714285  L 13.361979166666668 23.017857142857142  L 13.361979166666668 4.589285714285715  L 1 8.75  Z M 22.658854166666664 19.089285714285715  L 23.333333333333336 21.5  L 25.192708333333336 22.05357142857143  L 21.893229166666664 10.321428571428573  L 20.0703125 9.767857142857142  L 16.1328125 19.339285714285715  L 17.9921875 19.892857142857142  L 18.8125 17.92857142857143  L 22.658854166666664 19.089285714285715  Z M 24.609375 0.821428571428573  L 14.1640625 4.321428571428573  L 24.609375 7.607142857142858  L 24.609375 0.821428571428573  Z M 20.6171875 29.25  L 19.833333333333336 27.94642857142857  L 22.713541666666664 28.178571428571427  L 21.729166666666664 31.035714285714285  L 21 29.857142857142858  C 19.42013888888889 30.8452380952381  17.743055555555557 31.48809523809524  15.96875 31.785714285714285  C 15.263888888888891 31.928571428571427  14.7109375 32  14.309895833333334 32  L 12.778645833333332 32  C 11.81857638888889 32  10.606336805555557 31.767857142857142  9.141927083333332 31.303571428571427  C 7.677517361111111 30.839285714285715  6.5625 30.333333333333336  5.796875 29.785714285714285  C 5.699652777777779 29.702380952380953  5.651041666666666 29.607142857142858  5.651041666666666 29.5  C 5.651041666666666 29.404761904761905  5.681423611111112 29.324404761904763  5.7421875 29.258928571428573  C 5.80295138888889 29.19345238095238  5.881944444444445 29.160714285714285  5.979166666666666 29.160714285714285  C 6.027777777777779 29.160714285714285  6.137152777777779 29.205357142857142  6.307291666666666 29.294642857142858  C 6.477430555555556 29.383928571428573  6.662760416666666 29.482142857142858  6.86328125 29.589285714285715  C 7.063802083333334 29.696428571428573  7.188368055555556 29.761904761904763  7.236979166666667 29.785714285714285  C 8.124131944444445 30.226190476190478  9.093315972222223 30.592261904761905  10.14453125 30.883928571428573  C 11.19574652777778 31.175595238095237  12.15277777777778 31.321428571428573  13.015625 31.321428571428573  C 14.170138888888891 31.321428571428573  15.184895833333334 31.235119047619047  16.059895833333336 31.0625  C 16.934895833333336 30.889880952380953  17.88888888888889 30.589285714285715  18.921875 30.160714285714285  C 19.104166666666664 30.077380952380953  19.28949652777778 29.985119047619047  19.477864583333336 29.883928571428573  C 19.66623263888889 29.782738095238095  19.872829861111114 29.669642857142858  20.09765625 29.544642857142858  C 20.32248263888889 29.419642857142858  20.495659722222225 29.321428571428573  20.6171875 29.25  Z M 25.3203125 7.839285714285715  L 28 8.678571428571427  L 28 27.94642857142857  L 13.890625 23.55357142857143  C 13.720486111111112 23.625  11.44184027777778 24.38392857142857  7.0546875 25.830357142857142  C 2.6675347222222223 27.276785714285715  0.43142361111111116 28  0.34635416666666663 28  C 0.18836805555555555 28  0.07899305555555555 27.92261904761905  0.018229166666666664 27.767857142857142  C 0.018229166666666664 27.75595238095238  0.012152777777777778 27.738095238095237  0 27.714285714285715  L 0 8.464285714285715  C 0.03645833333333333 8.357142857142858  0.06076388888888888 8.297619047619044  0.07291666666666666 8.285714285714285  C 0.13368055555555558 8.214285714285715  0.25520833333333337 8.148809523809522  0.4375 8.089285714285715  C 1.7378472222222225 7.660714285714285  2.643229166666667 7.363095238095237  3.153645833333333 7.196428571428573  L 3.153645833333333 0.3392857142857153  L 13.325520833333332 3.875  C 13.34982638888889 3.875  14.325086805555557 3.547619047619044  16.251302083333336 2.8928571428571423  C 18.177517361111114 2.2380952380952372  20.09765625 1.5922619047619015  22.01171875 0.9553571428571423  C 23.92578125 0.31845238095238315  24.90711805555556 0  24.955729166666664 0  C 25.198784722222225 0  25.3203125 0.125  25.3203125 0.375  L 25.3203125 7.839285714285715  Z " fill-rule="evenodd" />
    </mask>
  </defs>
  <g transform="matrix(1 0 0 1 -2668 -306 )">
    <path d="M 11.83984375 18.705357142857142  C 11.918836805555557 18.99702380952381  11.946180555555557 19.17857142857143  11.921875 19.25  C 11.909722222222223 19.285714285714285  11.833767361111112 19.282738095238095  11.694010416666668 19.24107142857143  C 11.554253472222223 19.19940476190476  11.362847222222223 19.13095238095238  11.119791666666668 19.035714285714285  L 10.755208333333332 18.875  C 10.220486111111112 18.63690476190476  9.69184027777778 18.345238095238095  9.169270833333332 18  C 9.08420138888889 17.94047619047619  8.835069444444445 17.75297619047619  8.421875 17.4375  C 8.008680555555557 17.12202380952381  7.777777777777779 16.95238095238095  7.729166666666667 16.92857142857143  C 6.914930555555556 18.154761904761905  6.100694444444445 19.232142857142858  5.286458333333334 20.160714285714285  C 4.302083333333334 21.291666666666664  3.6640625 21.94642857142857  3.372395833333333 22.125  C 3.3237847222222223 22.148809523809522  3.2052951388888893 22.172619047619044  3.016927083333333 22.19642857142857  C 2.828559027777778 22.220238095238095  2.716145833333333 22.220238095238095  2.6796875 22.19642857142857  C 2.752604166666667 22.148809523809522  3.250868055555556 21.601190476190474  4.174479166666666 20.55357142857143  C 4.4296875 20.267857142857142  4.94921875 19.58333333333333  5.733072916666666 18.5  C 6.516927083333334 17.416666666666664  6.993923611111112 16.714285714285715  7.1640625 16.392857142857142  C 7.370659722222223 16.035714285714285  7.680555555555556 15.449404761904763  8.09375 14.633928571428573  C 8.506944444444445 13.81845238095238  8.725694444444445 13.357142857142858  8.75 13.25  C 8.652777777777779 13.238095238095237  7.984375 13.434523809523807  6.744791666666666 13.839285714285715  C 6.647569444444445 13.863095238095237  6.48046875 13.907738095238095  6.243489583333334 13.973214285714285  C 6.006510416666666 14.038690476190474  5.796875 14.095238095238095  5.614583333333334 14.142857142857142  C 5.432291666666666 14.19047619047619  5.328993055555556 14.220238095238095  5.3046875 14.232142857142858  C 5.280381944444445 14.25595238095238  5.268229166666666 14.31845238095238  5.268229166666666 14.419642857142858  C 5.268229166666666 14.520833333333332  5.262152777777779 14.577380952380953  5.25 14.589285714285715  C 5.189236111111112 14.708333333333332  5.000868055555556 14.797619047619047  4.684895833333334 14.857142857142858  C 4.405381944444445 14.94047619047619  4.119791666666667 14.94047619047619  3.828125 14.857142857142858  C 3.609375 14.809523809523807  3.4392361111111107 14.684523809523807  3.317708333333333 14.482142857142858  C 3.2690972222222223 14.410714285714285  3.238715277777778 14.273809523809522  3.2265625 14.071428571428573  C 3.299479166666667 14.047619047619047  3.448350694444445 14.017857142857142  3.6731770833333335 13.982142857142858  C 3.8980034722222228 13.946428571428573  4.077256944444445 13.910714285714285  4.2109375 13.875  C 4.915798611111112 13.684523809523807  5.553819444444445 13.494047619047617  6.125 13.303571428571427  C 7.340277777777779 12.88690476190476  7.9600694444444455 12.678571428571427  7.984375 12.678571428571427  C 8.105902777777779 12.654761904761902  8.3671875 12.538690476190474  8.768229166666668 12.330357142857142  C 9.169270833333332 12.122023809523807  9.436631944444445 11.994047619047617  9.5703125 11.946428571428573  C 9.6796875 11.910714285714285  9.810329861111112 11.863095238095237  9.962239583333332 11.803571428571427  C 10.114149305555557 11.744047619047617  10.202256944444445 11.711309523809522  10.2265625 11.705357142857142  C 10.250868055555557 11.69940476190476  10.28732638888889 11.702380952380953  10.3359375 11.714285714285715  C 10.360243055555557 11.857142857142858  10.354166666666668 12.053571428571427  10.317708333333332 12.303571428571427  C 10.317708333333332 12.327380952380953  10.241753472222223 12.488095238095237  10.08984375 12.785714285714285  C 9.93793402777778 13.083333333333332  9.776909722222223 13.401785714285715  9.606770833333332 13.741071428571427  C 9.436631944444445 14.080357142857142  9.333333333333332 14.279761904761905  9.296875 14.339285714285715  C 8.993055555555557 14.934523809523807  8.52517361111111 15.714285714285715  7.893229166666667 16.67857142857143  L 9.059895833333332 17.17857142857143  C 9.205729166666668 17.25  9.65842013888889 17.44047619047619  10.41796875 17.75  C 11.177517361111112 18.05952380952381  11.587673611111112 18.226190476190474  11.6484375 18.25  C 11.697048611111112 18.26190476190476  11.760850694444445 18.413690476190474  11.83984375 18.705357142857142  Z M 7.802083333333333 10.267857142857142  C 8.008680555555557 10.267857142857142  8.136284722222223 10.369047619047617  8.184895833333332 10.571428571428573  C 8.221354166666668 10.75  8.19704861111111 10.916666666666664  8.111979166666668 11.071428571428573  C 7.966145833333333 11.345238095238095  7.662326388888889 11.571428571428573  7.200520833333333 11.75  C 6.8359375 11.892857142857142  6.471354166666666 11.964285714285715  6.106770833333334 11.964285714285715  C 5.790798611111112 11.928571428571427  5.493055555555556 11.773809523809522  5.213541666666666 11.5  C 5.043402777777779 11.321428571428573  4.934027777777779 11.077380952380953  4.885416666666666 10.767857142857142  L 4.903645833333334 10.714285714285715  C 4.940104166666666 10.75  5.05859375 10.779761904761902  5.259114583333334 10.803571428571427  C 5.459635416666666 10.827380952380953  5.620659722222222 10.827380952380953  5.7421875 10.803571428571427  C 5.863715277777779 10.779761904761902  6.216145833333334 10.684523809523807  6.799479166666666 10.517857142857142  C 7.236979166666667 10.375  7.571180555555556 10.291666666666664  7.802083333333333 10.267857142857142  Z M 19.5234375 16.17857142857143  L 20.908854166666664 12.875  L 22.057291666666664 16.92857142857143  L 19.5234375 16.17857142857143  Z M 1 8.75  L 1 27.160714285714285  L 13.361979166666668 23.017857142857142  L 13.361979166666668 4.589285714285715  L 1 8.75  Z M 22.658854166666664 19.089285714285715  L 23.333333333333336 21.5  L 25.192708333333336 22.05357142857143  L 21.893229166666664 10.321428571428573  L 20.0703125 9.767857142857142  L 16.1328125 19.339285714285715  L 17.9921875 19.892857142857142  L 18.8125 17.92857142857143  L 22.658854166666664 19.089285714285715  Z M 24.609375 0.821428571428573  L 14.1640625 4.321428571428573  L 24.609375 7.607142857142858  L 24.609375 0.821428571428573  Z M 20.6171875 29.25  L 19.833333333333336 27.94642857142857  L 22.713541666666664 28.178571428571427  L 21.729166666666664 31.035714285714285  L 21 29.857142857142858  C 19.42013888888889 30.8452380952381  17.743055555555557 31.48809523809524  15.96875 31.785714285714285  C 15.263888888888891 31.928571428571427  14.7109375 32  14.309895833333334 32  L 12.778645833333332 32  C 11.81857638888889 32  10.606336805555557 31.767857142857142  9.141927083333332 31.303571428571427  C 7.677517361111111 30.839285714285715  6.5625 30.333333333333336  5.796875 29.785714285714285  C 5.699652777777779 29.702380952380953  5.651041666666666 29.607142857142858  5.651041666666666 29.5  C 5.651041666666666 29.404761904761905  5.681423611111112 29.324404761904763  5.7421875 29.258928571428573  C 5.80295138888889 29.19345238095238  5.881944444444445 29.160714285714285  5.979166666666666 29.160714285714285  C 6.027777777777779 29.160714285714285  6.137152777777779 29.205357142857142  6.307291666666666 29.294642857142858  C 6.477430555555556 29.383928571428573  6.662760416666666 29.482142857142858  6.86328125 29.589285714285715  C 7.063802083333334 29.696428571428573  7.188368055555556 29.761904761904763  7.236979166666667 29.785714285714285  C 8.124131944444445 30.226190476190478  9.093315972222223 30.592261904761905  10.14453125 30.883928571428573  C 11.19574652777778 31.175595238095237  12.15277777777778 31.321428571428573  13.015625 31.321428571428573  C 14.170138888888891 31.321428571428573  15.184895833333334 31.235119047619047  16.059895833333336 31.0625  C 16.934895833333336 30.889880952380953  17.88888888888889 30.589285714285715  18.921875 30.160714285714285  C 19.104166666666664 30.077380952380953  19.28949652777778 29.985119047619047  19.477864583333336 29.883928571428573  C 19.66623263888889 29.782738095238095  19.872829861111114 29.669642857142858  20.09765625 29.544642857142858  C 20.32248263888889 29.419642857142858  20.495659722222225 29.321428571428573  20.6171875 29.25  Z M 25.3203125 7.839285714285715  L 28 8.678571428571427  L 28 27.94642857142857  L 13.890625 23.55357142857143  C 13.720486111111112 23.625  11.44184027777778 24.38392857142857  7.0546875 25.830357142857142  C 2.6675347222222223 27.276785714285715  0.43142361111111116 28  0.34635416666666663 28  C 0.18836805555555555 28  0.07899305555555555 27.92261904761905  0.018229166666666664 27.767857142857142  C 0.018229166666666664 27.75595238095238  0.012152777777777778 27.738095238095237  0 27.714285714285715  L 0 8.464285714285715  C 0.03645833333333333 8.357142857142858  0.06076388888888888 8.297619047619044  0.07291666666666666 8.285714285714285  C 0.13368055555555558 8.214285714285715  0.25520833333333337 8.148809523809522  0.4375 8.089285714285715  C 1.7378472222222225 7.660714285714285  2.643229166666667 7.363095238095237  3.153645833333333 7.196428571428573  L 3.153645833333333 0.3392857142857153  L 13.325520833333332 3.875  C 13.34982638888889 3.875  14.325086805555557 3.547619047619044  16.251302083333336 2.8928571428571423  C 18.177517361111114 2.2380952380952372  20.09765625 1.5922619047619015  22.01171875 0.9553571428571423  C 23.92578125 0.31845238095238315  24.90711805555556 0  24.955729166666664 0  C 25.198784722222225 0  25.3203125 0.125  25.3203125 0.375  L 25.3203125 7.839285714285715  Z " fill-rule="nonzero" fill="rgba(85, 85, 85, 1)" stroke="none" transform="matrix(1 0 0 1 2668 306 )" class="fill" />
    <path d="M 11.83984375 18.705357142857142  C 11.918836805555557 18.99702380952381  11.946180555555557 19.17857142857143  11.921875 19.25  C 11.909722222222223 19.285714285714285  11.833767361111112 19.282738095238095  11.694010416666668 19.24107142857143  C 11.554253472222223 19.19940476190476  11.362847222222223 19.13095238095238  11.119791666666668 19.035714285714285  L 10.755208333333332 18.875  C 10.220486111111112 18.63690476190476  9.69184027777778 18.345238095238095  9.169270833333332 18  C 9.08420138888889 17.94047619047619  8.835069444444445 17.75297619047619  8.421875 17.4375  C 8.008680555555557 17.12202380952381  7.777777777777779 16.95238095238095  7.729166666666667 16.92857142857143  C 6.914930555555556 18.154761904761905  6.100694444444445 19.232142857142858  5.286458333333334 20.160714285714285  C 4.302083333333334 21.291666666666664  3.6640625 21.94642857142857  3.372395833333333 22.125  C 3.3237847222222223 22.148809523809522  3.2052951388888893 22.172619047619044  3.016927083333333 22.19642857142857  C 2.828559027777778 22.220238095238095  2.716145833333333 22.220238095238095  2.6796875 22.19642857142857  C 2.752604166666667 22.148809523809522  3.250868055555556 21.601190476190474  4.174479166666666 20.55357142857143  C 4.4296875 20.267857142857142  4.94921875 19.58333333333333  5.733072916666666 18.5  C 6.516927083333334 17.416666666666664  6.993923611111112 16.714285714285715  7.1640625 16.392857142857142  C 7.370659722222223 16.035714285714285  7.680555555555556 15.449404761904763  8.09375 14.633928571428573  C 8.506944444444445 13.81845238095238  8.725694444444445 13.357142857142858  8.75 13.25  C 8.652777777777779 13.238095238095237  7.984375 13.434523809523807  6.744791666666666 13.839285714285715  C 6.647569444444445 13.863095238095237  6.48046875 13.907738095238095  6.243489583333334 13.973214285714285  C 6.006510416666666 14.038690476190474  5.796875 14.095238095238095  5.614583333333334 14.142857142857142  C 5.432291666666666 14.19047619047619  5.328993055555556 14.220238095238095  5.3046875 14.232142857142858  C 5.280381944444445 14.25595238095238  5.268229166666666 14.31845238095238  5.268229166666666 14.419642857142858  C 5.268229166666666 14.520833333333332  5.262152777777779 14.577380952380953  5.25 14.589285714285715  C 5.189236111111112 14.708333333333332  5.000868055555556 14.797619047619047  4.684895833333334 14.857142857142858  C 4.405381944444445 14.94047619047619  4.119791666666667 14.94047619047619  3.828125 14.857142857142858  C 3.609375 14.809523809523807  3.4392361111111107 14.684523809523807  3.317708333333333 14.482142857142858  C 3.2690972222222223 14.410714285714285  3.238715277777778 14.273809523809522  3.2265625 14.071428571428573  C 3.299479166666667 14.047619047619047  3.448350694444445 14.017857142857142  3.6731770833333335 13.982142857142858  C 3.8980034722222228 13.946428571428573  4.077256944444445 13.910714285714285  4.2109375 13.875  C 4.915798611111112 13.684523809523807  5.553819444444445 13.494047619047617  6.125 13.303571428571427  C 7.340277777777779 12.88690476190476  7.9600694444444455 12.678571428571427  7.984375 12.678571428571427  C 8.105902777777779 12.654761904761902  8.3671875 12.538690476190474  8.768229166666668 12.330357142857142  C 9.169270833333332 12.122023809523807  9.436631944444445 11.994047619047617  9.5703125 11.946428571428573  C 9.6796875 11.910714285714285  9.810329861111112 11.863095238095237  9.962239583333332 11.803571428571427  C 10.114149305555557 11.744047619047617  10.202256944444445 11.711309523809522  10.2265625 11.705357142857142  C 10.250868055555557 11.69940476190476  10.28732638888889 11.702380952380953  10.3359375 11.714285714285715  C 10.360243055555557 11.857142857142858  10.354166666666668 12.053571428571427  10.317708333333332 12.303571428571427  C 10.317708333333332 12.327380952380953  10.241753472222223 12.488095238095237  10.08984375 12.785714285714285  C 9.93793402777778 13.083333333333332  9.776909722222223 13.401785714285715  9.606770833333332 13.741071428571427  C 9.436631944444445 14.080357142857142  9.333333333333332 14.279761904761905  9.296875 14.339285714285715  C 8.993055555555557 14.934523809523807  8.52517361111111 15.714285714285715  7.893229166666667 16.67857142857143  L 9.059895833333332 17.17857142857143  C 9.205729166666668 17.25  9.65842013888889 17.44047619047619  10.41796875 17.75  C 11.177517361111112 18.05952380952381  11.587673611111112 18.226190476190474  11.6484375 18.25  C 11.697048611111112 18.26190476190476  11.760850694444445 18.413690476190474  11.83984375 18.705357142857142  Z " stroke-width="0" stroke-dasharray="0" stroke="rgba(255, 255, 255, 0)" fill="none" transform="matrix(1 0 0 1 2668 306 )" class="stroke" mask="url(#Clip1)" />
    <path d="M 7.802083333333333 10.267857142857142  C 8.008680555555557 10.267857142857142  8.136284722222223 10.369047619047617  8.184895833333332 10.571428571428573  C 8.221354166666668 10.75  8.19704861111111 10.916666666666664  8.111979166666668 11.071428571428573  C 7.966145833333333 11.345238095238095  7.662326388888889 11.571428571428573  7.200520833333333 11.75  C 6.8359375 11.892857142857142  6.471354166666666 11.964285714285715  6.106770833333334 11.964285714285715  C 5.790798611111112 11.928571428571427  5.493055555555556 11.773809523809522  5.213541666666666 11.5  C 5.043402777777779 11.321428571428573  4.934027777777779 11.077380952380953  4.885416666666666 10.767857142857142  L 4.903645833333334 10.714285714285715  C 4.940104166666666 10.75  5.05859375 10.779761904761902  5.259114583333334 10.803571428571427  C 5.459635416666666 10.827380952380953  5.620659722222222 10.827380952380953  5.7421875 10.803571428571427  C 5.863715277777779 10.779761904761902  6.216145833333334 10.684523809523807  6.799479166666666 10.517857142857142  C 7.236979166666667 10.375  7.571180555555556 10.291666666666664  7.802083333333333 10.267857142857142  Z " stroke-width="0" stroke-dasharray="0" stroke="rgba(255, 255, 255, 0)" fill="none" transform="matrix(1 0 0 1 2668 306 )" class="stroke" mask="url(#Clip1)" />
    <path d="M 19.5234375 16.17857142857143  L 20.908854166666664 12.875  L 22.057291666666664 16.92857142857143  L 19.5234375 16.17857142857143  Z " stroke-width="0" stroke-dasharray="0" stroke="rgba(255, 255, 255, 0)" fill="none" transform="matrix(1 0 0 1 2668 306 )" class="stroke" mask="url(#Clip1)" />
    <path d="M 1 8.75  L 1 27.160714285714285  L 13.361979166666668 23.017857142857142  L 13.361979166666668 4.589285714285715  L 1 8.75  Z " stroke-width="0" stroke-dasharray="0" stroke="rgba(255, 255, 255, 0)" fill="none" transform="matrix(1 0 0 1 2668 306 )" class="stroke" mask="url(#Clip1)" />
    <path d="M 22.658854166666664 19.089285714285715  L 23.333333333333336 21.5  L 25.192708333333336 22.05357142857143  L 21.893229166666664 10.321428571428573  L 20.0703125 9.767857142857142  L 16.1328125 19.339285714285715  L 17.9921875 19.892857142857142  L 18.8125 17.92857142857143  L 22.658854166666664 19.089285714285715  Z " stroke-width="0" stroke-dasharray="0" stroke="rgba(255, 255, 255, 0)" fill="none" transform="matrix(1 0 0 1 2668 306 )" class="stroke" mask="url(#Clip1)" />
    <path d="M 24.609375 0.821428571428573  L 14.1640625 4.321428571428573  L 24.609375 7.607142857142858  L 24.609375 0.821428571428573  Z " stroke-width="0" stroke-dasharray="0" stroke="rgba(255, 255, 255, 0)" fill="none" transform="matrix(1 0 0 1 2668 306 )" class="stroke" mask="url(#Clip1)" />
    <path d="M 20.6171875 29.25  L 19.833333333333336 27.94642857142857  L 22.713541666666664 28.178571428571427  L 21.729166666666664 31.035714285714285  L 21 29.857142857142858  C 19.42013888888889 30.8452380952381  17.743055555555557 31.48809523809524  15.96875 31.785714285714285  C 15.263888888888891 31.928571428571427  14.7109375 32  14.309895833333334 32  L 12.778645833333332 32  C 11.81857638888889 32  10.606336805555557 31.767857142857142  9.141927083333332 31.303571428571427  C 7.677517361111111 30.839285714285715  6.5625 30.333333333333336  5.796875 29.785714285714285  C 5.699652777777779 29.702380952380953  5.651041666666666 29.607142857142858  5.651041666666666 29.5  C 5.651041666666666 29.404761904761905  5.681423611111112 29.324404761904763  5.7421875 29.258928571428573  C 5.80295138888889 29.19345238095238  5.881944444444445 29.160714285714285  5.979166666666666 29.160714285714285  C 6.027777777777779 29.160714285714285  6.137152777777779 29.205357142857142  6.307291666666666 29.294642857142858  C 6.477430555555556 29.383928571428573  6.662760416666666 29.482142857142858  6.86328125 29.589285714285715  C 7.063802083333334 29.696428571428573  7.188368055555556 29.761904761904763  7.236979166666667 29.785714285714285  C 8.124131944444445 30.226190476190478  9.093315972222223 30.592261904761905  10.14453125 30.883928571428573  C 11.19574652777778 31.175595238095237  12.15277777777778 31.321428571428573  13.015625 31.321428571428573  C 14.170138888888891 31.321428571428573  15.184895833333334 31.235119047619047  16.059895833333336 31.0625  C 16.934895833333336 30.889880952380953  17.88888888888889 30.589285714285715  18.921875 30.160714285714285  C 19.104166666666664 30.077380952380953  19.28949652777778 29.985119047619047  19.477864583333336 29.883928571428573  C 19.66623263888889 29.782738095238095  19.872829861111114 29.669642857142858  20.09765625 29.544642857142858  C 20.32248263888889 29.419642857142858  20.495659722222225 29.321428571428573  20.6171875 29.25  Z " stroke-width="0" stroke-dasharray="0" stroke="rgba(255, 255, 255, 0)" fill="none" transform="matrix(1 0 0 1 2668 306 )" class="stroke" mask="url(#Clip1)" />
    <path d="M 25.3203125 7.839285714285715  L 28 8.678571428571427  L 28 27.94642857142857  L 13.890625 23.55357142857143  C 13.720486111111112 23.625  11.44184027777778 24.38392857142857  7.0546875 25.830357142857142  C 2.6675347222222223 27.276785714285715  0.43142361111111116 28  0.34635416666666663 28  C 0.18836805555555555 28  0.07899305555555555 27.92261904761905  0.018229166666666664 27.767857142857142  C 0.018229166666666664 27.75595238095238  0.012152777777777778 27.738095238095237  0 27.714285714285715  L 0 8.464285714285715  C 0.03645833333333333 8.357142857142858  0.06076388888888888 8.297619047619044  0.07291666666666666 8.285714285714285  C 0.13368055555555558 8.214285714285715  0.25520833333333337 8.148809523809522  0.4375 8.089285714285715  C 1.7378472222222225 7.660714285714285  2.643229166666667 7.363095238095237  3.153645833333333 7.196428571428573  L 3.153645833333333 0.3392857142857153  L 13.325520833333332 3.875  C 13.34982638888889 3.875  14.325086805555557 3.547619047619044  16.251302083333336 2.8928571428571423  C 18.177517361111114 2.2380952380952372  20.09765625 1.5922619047619015  22.01171875 0.9553571428571423  C 23.92578125 0.31845238095238315  24.90711805555556 0  24.955729166666664 0  C 25.198784722222225 0  25.3203125 0.125  25.3203125 0.375  L 25.3203125 7.839285714285715  Z " stroke-width="0" stroke-dasharray="0" stroke="rgba(255, 255, 255, 0)" fill="none" transform="matrix(1 0 0 1 2668 306 )" class="stroke" mask="url(#Clip1)" />
  </g>
</svg>