<?xml version="1.0" encoding="utf-8"?>
<svg version="1.1" xmlns:xlink="http://www.w3.org/1999/xlink" width="37px" height="37px" xmlns="http://www.w3.org/2000/svg">
  <defs>
    <pattern id="BGPattern" patternUnits="userSpaceOnUse" alignment="0 0" imageRepeat="None" />
    <mask fill="white" id="Clip3">
      <path d="M 22.860026041666664 22.860026041666668  C 24.064453125 21.655598958333332  24.666666666666664 20.202256944444443  24.666666666666664 18.5  C 24.666666666666664 16.797743055555554  24.064453125 15.344401041666666  22.860026041666664 14.139973958333334  C 21.655598958333336 12.935546875  20.202256944444446 12.333333333333334  18.5 12.333333333333334  C 16.797743055555557 12.333333333333334  15.344401041666668 12.935546875  14.139973958333332 14.139973958333334  C 12.935546875 15.344401041666666  12.333333333333332 16.797743055555554  12.333333333333332 18.5  C 12.333333333333332 20.202256944444443  12.935546875 21.655598958333332  14.139973958333332 22.860026041666668  C 15.344401041666668 24.064453125  16.797743055555557 24.666666666666668  18.5 24.666666666666668  C 20.202256944444446 24.666666666666668  21.655598958333336 24.064453125  22.860026041666664 22.860026041666668  Z M 25.220703125 11.779296875  C 27.067491319444446 13.62608506944444  27.990885416666664 15.86631944444444  27.990885416666664 18.5  C 27.990885416666664 21.133680555555557  27.067491319444446 23.373914930555557  25.220703125 25.220703125  C 23.373914930555557 27.067491319444443  21.133680555555557 27.990885416666664  18.5 27.990885416666664  C 15.866319444444446 27.990885416666664  13.626085069444446 27.067491319444443  11.779296875 25.220703125  C 9.932508680555557 23.373914930555557  9.009114583333334 21.133680555555557  9.009114583333334 18.5  C 9.009114583333334 15.86631944444444  9.932508680555557 13.62608506944444  11.779296875 11.779296875  C 13.626085069444446 9.932508680555552  15.866319444444446 9.009114583333334  18.5 9.009114583333334  C 21.133680555555557 9.009114583333334  23.373914930555557 9.932508680555552  25.220703125 11.779296875  Z M 29.942057291666664 7.057942708333335  C 30.375651041666664 7.491536458333335  30.592447916666664 8.013454861111109  30.592447916666664 8.623697916666666  C 30.592447916666664 9.233940972222221  30.375651041666664 9.755859375  29.942057291666664 10.189453125  C 29.508463541666664 10.623046875  28.986545138888893 10.83984375  28.376302083333336 10.83984375  C 27.76605902777778 10.83984375  27.244140625 10.623046875  26.810546875 10.189453125  C 26.376953125 9.755859375  26.16015625 9.233940972222221  26.16015625 8.623697916666666  C 26.16015625 8.013454861111109  26.376953125 7.491536458333335  26.810546875 7.057942708333335  C 27.244140625 6.624348958333335  27.76605902777778 6.407552083333335  28.376302083333336 6.407552083333335  C 28.986545138888893 6.407552083333335  29.508463541666664 6.624348958333335  29.942057291666664 7.057942708333335  Z M 20.3427734375 3.312174479166665  C 19.226671006944446 3.3202039930555522  18.612413194444446 3.32421875  18.5 3.32421875  C 18.387586805555557 3.32421875  17.773328993055557 3.3202039930555522  16.6572265625 3.312174479166665  C 15.541124131944446 3.304144965277774  14.694010416666668 3.304144965277774  14.115885416666668 3.312174479166665  C 13.537760416666668 3.3202039930555522  12.76291232638889 3.344292534722222  11.791341145833332 3.384440104166665  C 10.81976996527778 3.424587673611109  9.992730034722223 3.5048828125  9.310221354166668 3.625325520833335  C 8.627712673611112 3.745768229166665  8.053602430555557 3.894314236111109  7.587890625 4.070963541666665  C 6.784939236111112 4.392144097222221  6.078342013888889 4.857855902777774  5.468098958333334 5.468098958333335  C 4.857855902777779 6.0783420138888875  4.392144097222222 6.784939236111109  4.070963541666667 7.587890625  C 3.8943142361111116 8.053602430555552  3.745768229166667 8.627712673611109  3.625325520833333 9.310221354166666  C 3.5048828125 9.992730034722221  3.4245876736111116 10.819769965277775  3.384440104166667 11.791341145833334  C 3.3442925347222223 12.762912326388888  3.320203993055556 13.537760416666666  3.312174479166667 14.115885416666666  C 3.304144965277778 14.694010416666666  3.304144965277778 15.54112413194444  3.312174479166667 16.6572265625  C 3.320203993055556 17.773328993055554  3.32421875 18.387586805555554  3.32421875 18.5  C 3.32421875 18.612413194444443  3.320203993055556 19.226671006944443  3.312174479166667 20.3427734375  C 3.304144965277778 21.458875868055557  3.304144965277778 22.305989583333332  3.312174479166667 22.884114583333332  C 3.320203993055556 23.462239583333332  3.3442925347222223 24.237087673611104  3.384440104166667 25.208658854166668  C 3.4245876736111116 26.180230034722218  3.5048828125 27.007269965277775  3.625325520833333 27.689778645833332  C 3.745768229166667 28.372287326388886  3.8943142361111116 28.94639756944444  4.070963541666667 29.412109375  C 4.392144097222222 30.215060763888886  4.857855902777779 30.921657986111114  5.468098958333334 31.531901041666664  C 6.078342013888889 32.14214409722222  6.784939236111112 32.60785590277778  7.587890625 32.929036458333336  C 8.053602430555557 33.105685763888886  8.627712673611112 33.254231770833336  9.310221354166668 33.374674479166664  C 9.992730034722223 33.4951171875  10.81976996527778 33.575412326388886  11.791341145833332 33.615559895833336  C 12.76291232638889 33.65570746527778  13.537760416666668 33.67979600694445  14.115885416666668 33.687825520833336  C 14.694010416666668 33.69585503472222  15.541124131944446 33.69585503472222  16.6572265625 33.687825520833336  C 17.773328993055557 33.67979600694445  18.387586805555557 33.67578125  18.5 33.67578125  C 18.612413194444446 33.67578125  19.226671006944446 33.67979600694445  20.3427734375 33.687825520833336  C 21.458875868055557 33.69585503472222  22.305989583333336 33.69585503472222  22.884114583333336 33.687825520833336  C 23.462239583333336 33.67979600694445  24.237087673611114 33.65570746527778  25.208658854166664 33.615559895833336  C 26.180230034722225 33.575412326388886  27.00726996527778 33.4951171875  27.689778645833336 33.374674479166664  C 28.372287326388893 33.254231770833336  28.946397569444446 33.105685763888886  29.412109375 32.929036458333336  C 30.215060763888893 32.60785590277778  30.921657986111114 32.14214409722222  31.531901041666664 31.531901041666664  C 32.14214409722223 30.921657986111114  32.60785590277778 30.215060763888886  32.929036458333336 29.412109375  C 33.10568576388889 28.94639756944444  33.254231770833336 28.372287326388886  33.374674479166664 27.689778645833332  C 33.4951171875 27.007269965277775  33.57541232638889 26.180230034722218  33.615559895833336 25.208658854166668  C 33.65570746527778 24.237087673611104  33.67979600694445 23.462239583333332  33.687825520833336 22.884114583333332  C 33.69585503472223 22.305989583333332  33.69585503472223 21.458875868055557  33.687825520833336 20.3427734375  C 33.67979600694445 19.226671006944443  33.67578125 18.612413194444443  33.67578125 18.5  C 33.67578125 18.387586805555554  33.67979600694445 17.773328993055554  33.687825520833336 16.6572265625  C 33.69585503472223 15.54112413194444  33.69585503472223 14.694010416666666  33.687825520833336 14.115885416666666  C 33.67979600694445 13.537760416666666  33.65570746527778 12.762912326388888  33.615559895833336 11.791341145833334  C 33.57541232638889 10.819769965277775  33.4951171875 9.992730034722221  33.374674479166664 9.310221354166666  C 33.254231770833336 8.627712673611109  33.10568576388889 8.053602430555552  32.929036458333336 7.587890625  C 32.60785590277778 6.784939236111109  32.14214409722223 6.0783420138888875  31.531901041666664 5.468098958333335  C 30.921657986111114 4.857855902777774  30.215060763888893 4.392144097222221  29.412109375 4.070963541666665  C 28.946397569444446 3.894314236111109  28.372287326388893 3.745768229166665  27.689778645833336 3.625325520833335  C 27.00726996527778 3.5048828125  26.180230034722225 3.424587673611109  25.208658854166664 3.384440104166665  C 24.237087673611114 3.344292534722222  23.462239583333336 3.3202039930555522  22.884114583333336 3.312174479166665  C 22.305989583333336 3.304144965277774  21.458875868055557 3.304144965277774  20.3427734375 3.312174479166665  Z M 36.879557291666664 10.863932291666666  C 36.95985243055555 12.277126736111109  37 14.822482638888888  37 18.5  C 37 22.177517361111114  36.95985243055555 24.722873263888886  36.879557291666664 26.136067708333332  C 36.71896701388889 29.476345486111114  35.723307291666664 32.061848958333336  33.892578125 33.892578125  C 32.061848958333336 35.723307291666664  29.476345486111114 36.718967013888886  26.136067708333336 36.879557291666664  C 24.722873263888893 36.95985243055555  22.177517361111114 37  18.5 37  C 14.82248263888889 37  12.27712673611111 36.95985243055555  10.863932291666668 36.879557291666664  C 7.52365451388889 36.718967013888886  4.938151041666667 35.723307291666664  3.107421875 33.892578125  C 1.2766927083333335 32.061848958333336  0.28103298611111116 29.476345486111114  0.12044270833333334 26.136067708333332  C 0.04014756944444444 24.722873263888886  0 22.177517361111114  0 18.5  C 0 14.822482638888888  0.04014756944444444 12.277126736111109  0.12044270833333334 10.863932291666666  C 0.28103298611111116 7.5236545138888875  1.2766927083333335 4.938151041666665  3.107421875 3.107421875  C 4.938151041666667 1.2766927083333348  7.52365451388889 0.28103298611110883  10.863932291666668 0.1204427083333347  C 12.27712673611111 0.040147569444439424  14.82248263888889 0  18.5 0  C 22.177517361111114 0  24.722873263888893 0.040147569444439424  26.136067708333336 0.1204427083333347  C 29.476345486111114 0.28103298611110883  32.061848958333336 1.2766927083333348  33.892578125 3.107421875  C 35.723307291666664 4.938151041666665  36.71896701388889 7.5236545138888875  36.879557291666664 10.863932291666666  Z " fill-rule="evenodd" />
    </mask>
  </defs>
  <g transform="matrix(1 0 0 1 -2613 -1974 )">
    <path d="M 22.860026041666664 22.860026041666668  C 24.064453125 21.655598958333332  24.666666666666664 20.202256944444443  24.666666666666664 18.5  C 24.666666666666664 16.797743055555554  24.064453125 15.344401041666666  22.860026041666664 14.139973958333334  C 21.655598958333336 12.935546875  20.202256944444446 12.333333333333334  18.5 12.333333333333334  C 16.797743055555557 12.333333333333334  15.344401041666668 12.935546875  14.139973958333332 14.139973958333334  C 12.935546875 15.344401041666666  12.333333333333332 16.797743055555554  12.333333333333332 18.5  C 12.333333333333332 20.202256944444443  12.935546875 21.655598958333332  14.139973958333332 22.860026041666668  C 15.344401041666668 24.064453125  16.797743055555557 24.666666666666668  18.5 24.666666666666668  C 20.202256944444446 24.666666666666668  21.655598958333336 24.064453125  22.860026041666664 22.860026041666668  Z M 25.220703125 11.779296875  C 27.067491319444446 13.62608506944444  27.990885416666664 15.86631944444444  27.990885416666664 18.5  C 27.990885416666664 21.133680555555557  27.067491319444446 23.373914930555557  25.220703125 25.220703125  C 23.373914930555557 27.067491319444443  21.133680555555557 27.990885416666664  18.5 27.990885416666664  C 15.866319444444446 27.990885416666664  13.626085069444446 27.067491319444443  11.779296875 25.220703125  C 9.932508680555557 23.373914930555557  9.009114583333334 21.133680555555557  9.009114583333334 18.5  C 9.009114583333334 15.86631944444444  9.932508680555557 13.62608506944444  11.779296875 11.779296875  C 13.626085069444446 9.932508680555552  15.866319444444446 9.009114583333334  18.5 9.009114583333334  C 21.133680555555557 9.009114583333334  23.373914930555557 9.932508680555552  25.220703125 11.779296875  Z M 29.942057291666664 7.057942708333335  C 30.375651041666664 7.491536458333335  30.592447916666664 8.013454861111109  30.592447916666664 8.623697916666666  C 30.592447916666664 9.233940972222221  30.375651041666664 9.755859375  29.942057291666664 10.189453125  C 29.508463541666664 10.623046875  28.986545138888893 10.83984375  28.376302083333336 10.83984375  C 27.76605902777778 10.83984375  27.244140625 10.623046875  26.810546875 10.189453125  C 26.376953125 9.755859375  26.16015625 9.233940972222221  26.16015625 8.623697916666666  C 26.16015625 8.013454861111109  26.376953125 7.491536458333335  26.810546875 7.057942708333335  C 27.244140625 6.624348958333335  27.76605902777778 6.407552083333335  28.376302083333336 6.407552083333335  C 28.986545138888893 6.407552083333335  29.508463541666664 6.624348958333335  29.942057291666664 7.057942708333335  Z M 20.3427734375 3.312174479166665  C 19.226671006944446 3.3202039930555522  18.612413194444446 3.32421875  18.5 3.32421875  C 18.387586805555557 3.32421875  17.773328993055557 3.3202039930555522  16.6572265625 3.312174479166665  C 15.541124131944446 3.304144965277774  14.694010416666668 3.304144965277774  14.115885416666668 3.312174479166665  C 13.537760416666668 3.3202039930555522  12.76291232638889 3.344292534722222  11.791341145833332 3.384440104166665  C 10.81976996527778 3.424587673611109  9.992730034722223 3.5048828125  9.310221354166668 3.625325520833335  C 8.627712673611112 3.745768229166665  8.053602430555557 3.894314236111109  7.587890625 4.070963541666665  C 6.784939236111112 4.392144097222221  6.078342013888889 4.857855902777774  5.468098958333334 5.468098958333335  C 4.857855902777779 6.0783420138888875  4.392144097222222 6.784939236111109  4.070963541666667 7.587890625  C 3.8943142361111116 8.053602430555552  3.745768229166667 8.627712673611109  3.625325520833333 9.310221354166666  C 3.5048828125 9.992730034722221  3.4245876736111116 10.819769965277775  3.384440104166667 11.791341145833334  C 3.3442925347222223 12.762912326388888  3.320203993055556 13.537760416666666  3.312174479166667 14.115885416666666  C 3.304144965277778 14.694010416666666  3.304144965277778 15.54112413194444  3.312174479166667 16.6572265625  C 3.320203993055556 17.773328993055554  3.32421875 18.387586805555554  3.32421875 18.5  C 3.32421875 18.612413194444443  3.320203993055556 19.226671006944443  3.312174479166667 20.3427734375  C 3.304144965277778 21.458875868055557  3.304144965277778 22.305989583333332  3.312174479166667 22.884114583333332  C 3.320203993055556 23.462239583333332  3.3442925347222223 24.237087673611104  3.384440104166667 25.208658854166668  C 3.4245876736111116 26.180230034722218  3.5048828125 27.007269965277775  3.625325520833333 27.689778645833332  C 3.745768229166667 28.372287326388886  3.8943142361111116 28.94639756944444  4.070963541666667 29.412109375  C 4.392144097222222 30.215060763888886  4.857855902777779 30.921657986111114  5.468098958333334 31.531901041666664  C 6.078342013888889 32.14214409722222  6.784939236111112 32.60785590277778  7.587890625 32.929036458333336  C 8.053602430555557 33.105685763888886  8.627712673611112 33.254231770833336  9.310221354166668 33.374674479166664  C 9.992730034722223 33.4951171875  10.81976996527778 33.575412326388886  11.791341145833332 33.615559895833336  C 12.76291232638889 33.65570746527778  13.537760416666668 33.67979600694445  14.115885416666668 33.687825520833336  C 14.694010416666668 33.69585503472222  15.541124131944446 33.69585503472222  16.6572265625 33.687825520833336  C 17.773328993055557 33.67979600694445  18.387586805555557 33.67578125  18.5 33.67578125  C 18.612413194444446 33.67578125  19.226671006944446 33.67979600694445  20.3427734375 33.687825520833336  C 21.458875868055557 33.69585503472222  22.305989583333336 33.69585503472222  22.884114583333336 33.687825520833336  C 23.462239583333336 33.67979600694445  24.237087673611114 33.65570746527778  25.208658854166664 33.615559895833336  C 26.180230034722225 33.575412326388886  27.00726996527778 33.4951171875  27.689778645833336 33.374674479166664  C 28.372287326388893 33.254231770833336  28.946397569444446 33.105685763888886  29.412109375 32.929036458333336  C 30.215060763888893 32.60785590277778  30.921657986111114 32.14214409722222  31.531901041666664 31.531901041666664  C 32.14214409722223 30.921657986111114  32.60785590277778 30.215060763888886  32.929036458333336 29.412109375  C 33.10568576388889 28.94639756944444  33.254231770833336 28.372287326388886  33.374674479166664 27.689778645833332  C 33.4951171875 27.007269965277775  33.57541232638889 26.180230034722218  33.615559895833336 25.208658854166668  C 33.65570746527778 24.237087673611104  33.67979600694445 23.462239583333332  33.687825520833336 22.884114583333332  C 33.69585503472223 22.305989583333332  33.69585503472223 21.458875868055557  33.687825520833336 20.3427734375  C 33.67979600694445 19.226671006944443  33.67578125 18.612413194444443  33.67578125 18.5  C 33.67578125 18.387586805555554  33.67979600694445 17.773328993055554  33.687825520833336 16.6572265625  C 33.69585503472223 15.54112413194444  33.69585503472223 14.694010416666666  33.687825520833336 14.115885416666666  C 33.67979600694445 13.537760416666666  33.65570746527778 12.762912326388888  33.615559895833336 11.791341145833334  C 33.57541232638889 10.819769965277775  33.4951171875 9.992730034722221  33.374674479166664 9.310221354166666  C 33.254231770833336 8.627712673611109  33.10568576388889 8.053602430555552  32.929036458333336 7.587890625  C 32.60785590277778 6.784939236111109  32.14214409722223 6.0783420138888875  31.531901041666664 5.468098958333335  C 30.921657986111114 4.857855902777774  30.215060763888893 4.392144097222221  29.412109375 4.070963541666665  C 28.946397569444446 3.894314236111109  28.372287326388893 3.745768229166665  27.689778645833336 3.625325520833335  C 27.00726996527778 3.5048828125  26.180230034722225 3.424587673611109  25.208658854166664 3.384440104166665  C 24.237087673611114 3.344292534722222  23.462239583333336 3.3202039930555522  22.884114583333336 3.312174479166665  C 22.305989583333336 3.304144965277774  21.458875868055557 3.304144965277774  20.3427734375 3.312174479166665  Z M 36.879557291666664 10.863932291666666  C 36.95985243055555 12.277126736111109  37 14.822482638888888  37 18.5  C 37 22.177517361111114  36.95985243055555 24.722873263888886  36.879557291666664 26.136067708333332  C 36.71896701388889 29.476345486111114  35.723307291666664 32.061848958333336  33.892578125 33.892578125  C 32.061848958333336 35.723307291666664  29.476345486111114 36.718967013888886  26.136067708333336 36.879557291666664  C 24.722873263888893 36.95985243055555  22.177517361111114 37  18.5 37  C 14.82248263888889 37  12.27712673611111 36.95985243055555  10.863932291666668 36.879557291666664  C 7.52365451388889 36.718967013888886  4.938151041666667 35.723307291666664  3.107421875 33.892578125  C 1.2766927083333335 32.061848958333336  0.28103298611111116 29.476345486111114  0.12044270833333334 26.136067708333332  C 0.04014756944444444 24.722873263888886  0 22.177517361111114  0 18.5  C 0 14.822482638888888  0.04014756944444444 12.277126736111109  0.12044270833333334 10.863932291666666  C 0.28103298611111116 7.5236545138888875  1.2766927083333335 4.938151041666665  3.107421875 3.107421875  C 4.938151041666667 1.2766927083333348  7.52365451388889 0.28103298611110883  10.863932291666668 0.1204427083333347  C 12.27712673611111 0.040147569444439424  14.82248263888889 0  18.5 0  C 22.177517361111114 0  24.722873263888893 0.040147569444439424  26.136067708333336 0.1204427083333347  C 29.476345486111114 0.28103298611110883  32.061848958333336 1.2766927083333348  33.892578125 3.107421875  C 35.723307291666664 4.938151041666665  36.71896701388889 7.5236545138888875  36.879557291666664 10.863932291666666  Z " fill-rule="nonzero" fill="rgba(85, 85, 85, 1)" stroke="none" transform="matrix(1 0 0 1 2613 1974 )" class="fill" />
    <path d="M 22.860026041666664 22.860026041666668  C 24.064453125 21.655598958333332  24.666666666666664 20.202256944444443  24.666666666666664 18.5  C 24.666666666666664 16.797743055555554  24.064453125 15.344401041666666  22.860026041666664 14.139973958333334  C 21.655598958333336 12.935546875  20.202256944444446 12.333333333333334  18.5 12.333333333333334  C 16.797743055555557 12.333333333333334  15.344401041666668 12.935546875  14.139973958333332 14.139973958333334  C 12.935546875 15.344401041666666  12.333333333333332 16.797743055555554  12.333333333333332 18.5  C 12.333333333333332 20.202256944444443  12.935546875 21.655598958333332  14.139973958333332 22.860026041666668  C 15.344401041666668 24.064453125  16.797743055555557 24.666666666666668  18.5 24.666666666666668  C 20.202256944444446 24.666666666666668  21.655598958333336 24.064453125  22.860026041666664 22.860026041666668  Z " stroke-width="0" stroke-dasharray="0" stroke="rgba(255, 255, 255, 0)" fill="none" transform="matrix(1 0 0 1 2613 1974 )" class="stroke" mask="url(#Clip3)" />
    <path d="M 25.220703125 11.779296875  C 27.067491319444446 13.62608506944444  27.990885416666664 15.86631944444444  27.990885416666664 18.5  C 27.990885416666664 21.133680555555557  27.067491319444446 23.373914930555557  25.220703125 25.220703125  C 23.373914930555557 27.067491319444443  21.133680555555557 27.990885416666664  18.5 27.990885416666664  C 15.866319444444446 27.990885416666664  13.626085069444446 27.067491319444443  11.779296875 25.220703125  C 9.932508680555557 23.373914930555557  9.009114583333334 21.133680555555557  9.009114583333334 18.5  C 9.009114583333334 15.86631944444444  9.932508680555557 13.62608506944444  11.779296875 11.779296875  C 13.626085069444446 9.932508680555552  15.866319444444446 9.009114583333334  18.5 9.009114583333334  C 21.133680555555557 9.009114583333334  23.373914930555557 9.932508680555552  25.220703125 11.779296875  Z " stroke-width="0" stroke-dasharray="0" stroke="rgba(255, 255, 255, 0)" fill="none" transform="matrix(1 0 0 1 2613 1974 )" class="stroke" mask="url(#Clip3)" />
    <path d="M 29.942057291666664 7.057942708333335  C 30.375651041666664 7.491536458333335  30.592447916666664 8.013454861111109  30.592447916666664 8.623697916666666  C 30.592447916666664 9.233940972222221  30.375651041666664 9.755859375  29.942057291666664 10.189453125  C 29.508463541666664 10.623046875  28.986545138888893 10.83984375  28.376302083333336 10.83984375  C 27.76605902777778 10.83984375  27.244140625 10.623046875  26.810546875 10.189453125  C 26.376953125 9.755859375  26.16015625 9.233940972222221  26.16015625 8.623697916666666  C 26.16015625 8.013454861111109  26.376953125 7.491536458333335  26.810546875 7.057942708333335  C 27.244140625 6.624348958333335  27.76605902777778 6.407552083333335  28.376302083333336 6.407552083333335  C 28.986545138888893 6.407552083333335  29.508463541666664 6.624348958333335  29.942057291666664 7.057942708333335  Z " stroke-width="0" stroke-dasharray="0" stroke="rgba(255, 255, 255, 0)" fill="none" transform="matrix(1 0 0 1 2613 1974 )" class="stroke" mask="url(#Clip3)" />
    <path d="M 20.3427734375 3.312174479166665  C 19.226671006944446 3.3202039930555522  18.612413194444446 3.32421875  18.5 3.32421875  C 18.387586805555557 3.32421875  17.773328993055557 3.3202039930555522  16.6572265625 3.312174479166665  C 15.541124131944446 3.304144965277774  14.694010416666668 3.304144965277774  14.115885416666668 3.312174479166665  C 13.537760416666668 3.3202039930555522  12.76291232638889 3.344292534722222  11.791341145833332 3.384440104166665  C 10.81976996527778 3.424587673611109  9.992730034722223 3.5048828125  9.310221354166668 3.625325520833335  C 8.627712673611112 3.745768229166665  8.053602430555557 3.894314236111109  7.587890625 4.070963541666665  C 6.784939236111112 4.392144097222221  6.078342013888889 4.857855902777774  5.468098958333334 5.468098958333335  C 4.857855902777779 6.0783420138888875  4.392144097222222 6.784939236111109  4.070963541666667 7.587890625  C 3.8943142361111116 8.053602430555552  3.745768229166667 8.627712673611109  3.625325520833333 9.310221354166666  C 3.5048828125 9.992730034722221  3.4245876736111116 10.819769965277775  3.384440104166667 11.791341145833334  C 3.3442925347222223 12.762912326388888  3.320203993055556 13.537760416666666  3.312174479166667 14.115885416666666  C 3.304144965277778 14.694010416666666  3.304144965277778 15.54112413194444  3.312174479166667 16.6572265625  C 3.320203993055556 17.773328993055554  3.32421875 18.387586805555554  3.32421875 18.5  C 3.32421875 18.612413194444443  3.320203993055556 19.226671006944443  3.312174479166667 20.3427734375  C 3.304144965277778 21.458875868055557  3.304144965277778 22.305989583333332  3.312174479166667 22.884114583333332  C 3.320203993055556 23.462239583333332  3.3442925347222223 24.237087673611104  3.384440104166667 25.208658854166668  C 3.4245876736111116 26.180230034722218  3.5048828125 27.007269965277775  3.625325520833333 27.689778645833332  C 3.745768229166667 28.372287326388886  3.8943142361111116 28.94639756944444  4.070963541666667 29.412109375  C 4.392144097222222 30.215060763888886  4.857855902777779 30.921657986111114  5.468098958333334 31.531901041666664  C 6.078342013888889 32.14214409722222  6.784939236111112 32.60785590277778  7.587890625 32.929036458333336  C 8.053602430555557 33.105685763888886  8.627712673611112 33.254231770833336  9.310221354166668 33.374674479166664  C 9.992730034722223 33.4951171875  10.81976996527778 33.575412326388886  11.791341145833332 33.615559895833336  C 12.76291232638889 33.65570746527778  13.537760416666668 33.67979600694445  14.115885416666668 33.687825520833336  C 14.694010416666668 33.69585503472222  15.541124131944446 33.69585503472222  16.6572265625 33.687825520833336  C 17.773328993055557 33.67979600694445  18.387586805555557 33.67578125  18.5 33.67578125  C 18.612413194444446 33.67578125  19.226671006944446 33.67979600694445  20.3427734375 33.687825520833336  C 21.458875868055557 33.69585503472222  22.305989583333336 33.69585503472222  22.884114583333336 33.687825520833336  C 23.462239583333336 33.67979600694445  24.237087673611114 33.65570746527778  25.208658854166664 33.615559895833336  C 26.180230034722225 33.575412326388886  27.00726996527778 33.4951171875  27.689778645833336 33.374674479166664  C 28.372287326388893 33.254231770833336  28.946397569444446 33.105685763888886  29.412109375 32.929036458333336  C 30.215060763888893 32.60785590277778  30.921657986111114 32.14214409722222  31.531901041666664 31.531901041666664  C 32.14214409722223 30.921657986111114  32.60785590277778 30.215060763888886  32.929036458333336 29.412109375  C 33.10568576388889 28.94639756944444  33.254231770833336 28.372287326388886  33.374674479166664 27.689778645833332  C 33.4951171875 27.007269965277775  33.57541232638889 26.180230034722218  33.615559895833336 25.208658854166668  C 33.65570746527778 24.237087673611104  33.67979600694445 23.462239583333332  33.687825520833336 22.884114583333332  C 33.69585503472223 22.305989583333332  33.69585503472223 21.458875868055557  33.687825520833336 20.3427734375  C 33.67979600694445 19.226671006944443  33.67578125 18.612413194444443  33.67578125 18.5  C 33.67578125 18.387586805555554  33.67979600694445 17.773328993055554  33.687825520833336 16.6572265625  C 33.69585503472223 15.54112413194444  33.69585503472223 14.694010416666666  33.687825520833336 14.115885416666666  C 33.67979600694445 13.537760416666666  33.65570746527778 12.762912326388888  33.615559895833336 11.791341145833334  C 33.57541232638889 10.819769965277775  33.4951171875 9.992730034722221  33.374674479166664 9.310221354166666  C 33.254231770833336 8.627712673611109  33.10568576388889 8.053602430555552  32.929036458333336 7.587890625  C 32.60785590277778 6.784939236111109  32.14214409722223 6.0783420138888875  31.531901041666664 5.468098958333335  C 30.921657986111114 4.857855902777774  30.215060763888893 4.392144097222221  29.412109375 4.070963541666665  C 28.946397569444446 3.894314236111109  28.372287326388893 3.745768229166665  27.689778645833336 3.625325520833335  C 27.00726996527778 3.5048828125  26.180230034722225 3.424587673611109  25.208658854166664 3.384440104166665  C 24.237087673611114 3.344292534722222  23.462239583333336 3.3202039930555522  22.884114583333336 3.312174479166665  C 22.305989583333336 3.304144965277774  21.458875868055557 3.304144965277774  20.3427734375 3.312174479166665  Z " stroke-width="0" stroke-dasharray="0" stroke="rgba(255, 255, 255, 0)" fill="none" transform="matrix(1 0 0 1 2613 1974 )" class="stroke" mask="url(#Clip3)" />
    <path d="M 36.879557291666664 10.863932291666666  C 36.95985243055555 12.277126736111109  37 14.822482638888888  37 18.5  C 37 22.177517361111114  36.95985243055555 24.722873263888886  36.879557291666664 26.136067708333332  C 36.71896701388889 29.476345486111114  35.723307291666664 32.061848958333336  33.892578125 33.892578125  C 32.061848958333336 35.723307291666664  29.476345486111114 36.718967013888886  26.136067708333336 36.879557291666664  C 24.722873263888893 36.95985243055555  22.177517361111114 37  18.5 37  C 14.82248263888889 37  12.27712673611111 36.95985243055555  10.863932291666668 36.879557291666664  C 7.52365451388889 36.718967013888886  4.938151041666667 35.723307291666664  3.107421875 33.892578125  C 1.2766927083333335 32.061848958333336  0.28103298611111116 29.476345486111114  0.12044270833333334 26.136067708333332  C 0.04014756944444444 24.722873263888886  0 22.177517361111114  0 18.5  C 0 14.822482638888888  0.04014756944444444 12.277126736111109  0.12044270833333334 10.863932291666666  C 0.28103298611111116 7.5236545138888875  1.2766927083333335 4.938151041666665  3.107421875 3.107421875  C 4.938151041666667 1.2766927083333348  7.52365451388889 0.28103298611110883  10.863932291666668 0.1204427083333347  C 12.27712673611111 0.040147569444439424  14.82248263888889 0  18.5 0  C 22.177517361111114 0  24.722873263888893 0.040147569444439424  26.136067708333336 0.1204427083333347  C 29.476345486111114 0.28103298611110883  32.061848958333336 1.2766927083333348  33.892578125 3.107421875  C 35.723307291666664 4.938151041666665  36.71896701388889 7.5236545138888875  36.879557291666664 10.863932291666666  Z " stroke-width="0" stroke-dasharray="0" stroke="rgba(255, 255, 255, 0)" fill="none" transform="matrix(1 0 0 1 2613 1974 )" class="stroke" mask="url(#Clip3)" />
  </g>
</svg>