<?xml version="1.0" encoding="utf-8"?>
<svg version="1.1" xmlns:xlink="http://www.w3.org/1999/xlink" width="30px" height="37px" xmlns="http://www.w3.org/2000/svg">
  <defs>
    <pattern id="BGPattern" patternUnits="userSpaceOnUse" alignment="0 0" imageRepeat="None" />
    <mask fill="white" id="Clip4">
      <path d="M 18.31983805668016 24.30189732142857  C 18.846153846153847 24.30189732142857  19.10931174089069 24.763020833333332  19.10931174089069 25.685267857142858  L 19.10931174089069 30.04185267857143  C 19.10931174089069 30.964099702380953  18.846153846153847 31.425223214285715  18.31983805668016 31.425223214285715  C 18.00944669365722 31.425223214285715  17.705802968960864 31.27380952380953  17.408906882591094 30.970982142857142  L 17.408906882591094 24.756138392857142  C 17.705802968960864 24.45331101190476  18.00944669365722 24.30189732142857  18.31983805668016 24.30189732142857  Z M 25.040485829959515 24.30189732142857  C 25.647773279352226 24.30189732142857  25.951417004048583 24.76990327380952  25.951417004048583 25.70591517857143  L 25.951417004048583 26.655691964285715  L 24.129554655870447 26.655691964285715  L 24.129554655870447 25.70591517857143  C 24.129554655870447 24.76990327380952  24.4331983805668 24.30189732142857  25.040485829959515 24.30189732142857  Z M 6.396761133603239 32.953125  L 6.396761133603239 21.204799107142858  L 8.562753036437247 21.204799107142858  L 8.562753036437247 19.263950892857142  L 2.246963562753036 19.263950892857142  L 2.246963562753036 21.204799107142858  L 4.37246963562753 21.204799107142858  L 4.37246963562753 32.953125  L 6.396761133603239 32.953125  Z M 12.22672064777328 31.838169642857142  L 12.22672064777328 32.953125  L 14 32.953125  L 14 22.753348214285715  L 12.22672064777328 22.753348214285715  L 12.22672064777328 30.558035714285715  C 11.821862348178138 31.136160714285715  11.437246963562753 31.425223214285715  11.072874493927126 31.425223214285715  C 10.82995951417004 31.425223214285715  10.68825910931174 31.280691964285715  10.647773279352228 30.991629464285715  C 10.634278002699055 30.95033482142857  10.62753036437247 30.709449404761905  10.62753036437247 30.268973214285715  L 10.62753036437247 22.753348214285715  L 8.82591093117409 22.753348214285715  L 8.82591093117409 30.826450892857142  C 8.82591093117409 31.50093005952381  8.879892037786774 32.003348214285715  8.987854251012145 32.33370535714286  C 9.149797570850204 32.843005952380956  9.541160593792172 33.09765625  10.161943319838056 33.09765625  C 10.809716599190283 33.09765625  11.497975708502025 32.67782738095238  12.22672064777328 31.838169642857142  Z M 20.728744939271255 31.96205357142857  C 20.850202429149796 31.590401785714285  20.910931174089068 30.90215773809524  20.910931174089068 29.89732142857143  L 20.910931174089068 25.829799107142858  C 20.910931174089068 24.824962797619047  20.850202429149796 24.14360119047619  20.728744939271255 23.785714285714285  C 20.49932523616734 23.01488095238095  20.020242914979757 22.629464285714285  19.291497975708502 22.629464285714285  C 18.616734143049932 22.629464285714285  17.989203778677464 23.00111607142857  17.408906882591094 23.744419642857142  L 17.408906882591094 19.263950892857142  L 15.607287449392711 19.263950892857142  L 15.607287449392711 32.953125  L 17.408906882591094 32.953125  L 17.408906882591094 31.96205357142857  C 18.016194331983804 32.719122023809526  18.643724696356276 33.09765625  19.291497975708502 33.09765625  C 20.020242914979757 33.09765625  20.49932523616734 32.719122023809526  20.728744939271255 31.96205357142857  Z M 27.71255060728745 30.888392857142858  C 27.739541160593795 30.76450892857143  27.753036437246966 30.365327380952383  27.753036437246966 29.690848214285715  L 27.753036437246966 29.422433035714285  L 25.91093117408907 29.422433035714285  C 25.91093117408907 30.124441964285715  25.8974358974359 30.544270833333332  25.870445344129557 30.681919642857142  C 25.775978407557357 31.177455357142858  25.506072874493928 31.425223214285715  25.060728744939272 31.425223214285715  C 24.43994601889339 31.425223214285715  24.129554655870447 30.95033482142857  24.129554655870447 30.000558035714285  L 24.129554655870447 28.20424107142857  L 27.753036437246966 28.20424107142857  L 27.753036437246966 26.077566964285715  C 27.753036437246966 24.990141369047617  27.57085020242915 24.19177827380952  27.206477732793523 23.68247767857143  C 26.68016194331984 22.98046875  25.964912280701757 22.629464285714285  25.060728744939272 22.629464285714285  C 24.143049932523617 22.629464285714285  23.421052631578945 22.98046875  22.894736842105264 23.68247767857143  C 22.516869095816467 24.19177827380952  22.327935222672064 24.990141369047617  22.327935222672064 26.077566964285715  L 22.327935222672064 29.64955357142857  C 22.327935222672064 30.736979166666668  22.523616734143054 31.53534226190476  22.91497975708502 32.04464285714286  C 23.441295546558706 32.746651785714285  24.17004048582996 33.09765625  25.101214574898787 33.09765625  C 26.072874493927124 33.09765625  26.80161943319838 32.7328869047619  27.287449392712553 32.003348214285715  C 27.530364372469634 31.63169642857143  27.672064777327936 31.260044642857142  27.71255060728745 30.888392857142858  Z M 14.5748987854251 12.28515625  C 15.155195681511474 12.28515625  15.445344129554657 11.803385416666666  15.445344129554657 10.83984375  L 15.445344129554657 6.50390625  C 15.445344129554657 5.554129464285713  15.155195681511474 5.079241071428571  14.5748987854251 5.079241071428571  C 13.994601889338732 5.079241071428571  13.704453441295547 5.554129464285713  13.704453441295547 6.50390625  L 13.704453441295547 10.83984375  C 13.704453441295547 11.803385416666666  13.994601889338732 12.28515625  14.5748987854251 12.28515625  Z M 29.473684210526315 19.119419642857142  C 29.824561403508774 20.66108630952381  30 23.06994047619047  30 26.345982142857142  C 30 29.566964285714285  29.824561403508774 31.975818452380953  29.473684210526315 33.57254464285714  C 29.284750337381915 34.38467261904762  28.89338731443995 35.066034226190474  28.299595141700404 35.616629464285715  C 27.705802968960864 36.167224702380956  27.017543859649123 36.483816964285715  26.234817813765183 36.56640625  C 23.75168690958165 36.85546875  20.006747638326587 37  15 37  C 9.993252361673415 37  6.248313090418354 36.85546875  3.7651821862348176 36.56640625  C 2.9824561403508776 36.483816964285715  2.290823211875844 36.167224702380956  1.6902834008097165 35.616629464285715  C 1.08974358974359 35.066034226190474  0.7017543859649124 34.38467261904762  0.5263157894736842 33.57254464285714  C 0.17543859649122817 32.030877976190474  0 29.62202380952381  0 26.345982142857142  C 0 23.125  0.17543859649122817 20.716145833333332  0.5263157894736842 19.119419642857142  C 0.7152496626180838 18.307291666666664  1.106612685560054 17.625930059523807  1.7004048582995952 17.07533482142857  C 2.294197031039136 16.524739583333332  2.9892037786774632 16.201264880952383  3.785425101214575 16.10491071428571  C 6.255060728744939 15.82961309523809  9.993252361673415 15.691964285714288  15 15.691964285714288  C 20.006747638326587 15.691964285714288  23.75168690958165 15.82961309523809  26.234817813765183 16.10491071428571  C 27.017543859649123 16.201264880952383  27.70917678812416 16.524739583333332  28.309716599190285 17.07533482142857  C 28.910256410256412 17.625930059523807  29.298245614035093 18.307291666666664  29.473684210526315 19.119419642857142  Z M 8.421052631578947 5.430245535714287  L 9.797570850202428 0  L 11.862348178137653 0  L 9.412955465587045 8.23828125  L 9.412955465587045 13.833705357142858  L 7.388663967611336 13.833705357142858  L 7.388663967611336 8.23828125  C 7.199730094466937 7.219680059523807  6.78812415654521 5.760602678571429  6.153846153846153 3.8610491071428585  C 5.654520917678814 2.443266369047618  5.2159244264507425 1.15625  4.838056680161944 0  L 6.983805668016195 0  L 8.421052631578947 5.430245535714287  Z M 16.720647773279353 4.459821428571429  C 17.098515519568153 4.969122023809519  17.28744939271255 5.774367559523807  17.28744939271255 6.875558035714287  L 17.28744939271255 10.488839285714288  C 17.28744939271255 11.603794642857142  17.098515519568153 12.415922619047619  16.720647773279353 12.925223214285712  C 16.207827260458842 13.627232142857142  15.492577597840755 13.978236607142858  14.5748987854251 13.978236607142858  C 13.670715249662619 13.978236607142858  12.962213225371121 13.627232142857142  12.449392712550607 12.925223214285712  C 12.071524966261808 12.402157738095235  11.882591093117409 11.59002976190476  11.882591093117409 10.488839285714288  L 11.882591093117409 6.875558035714287  C 11.882591093117409 5.774367559523807  12.071524966261808 4.969122023809519  12.449392712550607 4.459821428571429  C 12.962213225371121 3.7578125  13.670715249662619 3.4068080357142874  14.5748987854251 3.4068080357142874  C 15.492577597840755 3.4068080357142874  16.207827260458842 3.7578125  16.720647773279353 4.459821428571429  Z M 22.22672064777328 3.5306919642857126  L 24 3.5306919642857126  L 24 13.833705357142858  L 22.22672064777328 13.833705357142858  L 22.22672064777328 12.698102678571429  C 21.5114709851552 13.551525297619047  20.816464237516872 13.978236607142858  20.141700404858298 13.978236607142858  C 19.520917678812417 13.978236607142858  19.12280701754386 13.723586309523807  18.94736842105263 13.214285714285712  C 18.839406207827263 12.883928571428571  18.785425101214575 12.367745535714288  18.785425101214575 11.665736607142858  L 18.785425101214575 3.5306919642857126  L 20.62753036437247 3.5306919642857126  L 20.62753036437247 11.108258928571429  C 20.62753036437247 11.5625  20.634278002699055 11.803385416666666  20.647773279352226 11.830915178571429  C 20.68825910931174 12.133742559523807  20.82995951417004 12.28515625  21.072874493927127 12.28515625  C 21.437246963562753 12.28515625  21.821862348178136 11.989211309523807  22.22672064777328 11.397321428571429  L 22.22672064777328 3.5306919642857126  Z " fill-rule="evenodd" />
    </mask>
  </defs>
  <g transform="matrix(1 0 0 1 -2662 -1974 )">
    <path d="M 18.31983805668016 24.30189732142857  C 18.846153846153847 24.30189732142857  19.10931174089069 24.763020833333332  19.10931174089069 25.685267857142858  L 19.10931174089069 30.04185267857143  C 19.10931174089069 30.964099702380953  18.846153846153847 31.425223214285715  18.31983805668016 31.425223214285715  C 18.00944669365722 31.425223214285715  17.705802968960864 31.27380952380953  17.408906882591094 30.970982142857142  L 17.408906882591094 24.756138392857142  C 17.705802968960864 24.45331101190476  18.00944669365722 24.30189732142857  18.31983805668016 24.30189732142857  Z M 25.040485829959515 24.30189732142857  C 25.647773279352226 24.30189732142857  25.951417004048583 24.76990327380952  25.951417004048583 25.70591517857143  L 25.951417004048583 26.655691964285715  L 24.129554655870447 26.655691964285715  L 24.129554655870447 25.70591517857143  C 24.129554655870447 24.76990327380952  24.4331983805668 24.30189732142857  25.040485829959515 24.30189732142857  Z M 6.396761133603239 32.953125  L 6.396761133603239 21.204799107142858  L 8.562753036437247 21.204799107142858  L 8.562753036437247 19.263950892857142  L 2.246963562753036 19.263950892857142  L 2.246963562753036 21.204799107142858  L 4.37246963562753 21.204799107142858  L 4.37246963562753 32.953125  L 6.396761133603239 32.953125  Z M 12.22672064777328 31.838169642857142  L 12.22672064777328 32.953125  L 14 32.953125  L 14 22.753348214285715  L 12.22672064777328 22.753348214285715  L 12.22672064777328 30.558035714285715  C 11.821862348178138 31.136160714285715  11.437246963562753 31.425223214285715  11.072874493927126 31.425223214285715  C 10.82995951417004 31.425223214285715  10.68825910931174 31.280691964285715  10.647773279352228 30.991629464285715  C 10.634278002699055 30.95033482142857  10.62753036437247 30.709449404761905  10.62753036437247 30.268973214285715  L 10.62753036437247 22.753348214285715  L 8.82591093117409 22.753348214285715  L 8.82591093117409 30.826450892857142  C 8.82591093117409 31.50093005952381  8.879892037786774 32.003348214285715  8.987854251012145 32.33370535714286  C 9.149797570850204 32.843005952380956  9.541160593792172 33.09765625  10.161943319838056 33.09765625  C 10.809716599190283 33.09765625  11.497975708502025 32.67782738095238  12.22672064777328 31.838169642857142  Z M 20.728744939271255 31.96205357142857  C 20.850202429149796 31.590401785714285  20.910931174089068 30.90215773809524  20.910931174089068 29.89732142857143  L 20.910931174089068 25.829799107142858  C 20.910931174089068 24.824962797619047  20.850202429149796 24.14360119047619  20.728744939271255 23.785714285714285  C 20.49932523616734 23.01488095238095  20.020242914979757 22.629464285714285  19.291497975708502 22.629464285714285  C 18.616734143049932 22.629464285714285  17.989203778677464 23.00111607142857  17.408906882591094 23.744419642857142  L 17.408906882591094 19.263950892857142  L 15.607287449392711 19.263950892857142  L 15.607287449392711 32.953125  L 17.408906882591094 32.953125  L 17.408906882591094 31.96205357142857  C 18.016194331983804 32.719122023809526  18.643724696356276 33.09765625  19.291497975708502 33.09765625  C 20.020242914979757 33.09765625  20.49932523616734 32.719122023809526  20.728744939271255 31.96205357142857  Z M 27.71255060728745 30.888392857142858  C 27.739541160593795 30.76450892857143  27.753036437246966 30.365327380952383  27.753036437246966 29.690848214285715  L 27.753036437246966 29.422433035714285  L 25.91093117408907 29.422433035714285  C 25.91093117408907 30.124441964285715  25.8974358974359 30.544270833333332  25.870445344129557 30.681919642857142  C 25.775978407557357 31.177455357142858  25.506072874493928 31.425223214285715  25.060728744939272 31.425223214285715  C 24.43994601889339 31.425223214285715  24.129554655870447 30.95033482142857  24.129554655870447 30.000558035714285  L 24.129554655870447 28.20424107142857  L 27.753036437246966 28.20424107142857  L 27.753036437246966 26.077566964285715  C 27.753036437246966 24.990141369047617  27.57085020242915 24.19177827380952  27.206477732793523 23.68247767857143  C 26.68016194331984 22.98046875  25.964912280701757 22.629464285714285  25.060728744939272 22.629464285714285  C 24.143049932523617 22.629464285714285  23.421052631578945 22.98046875  22.894736842105264 23.68247767857143  C 22.516869095816467 24.19177827380952  22.327935222672064 24.990141369047617  22.327935222672064 26.077566964285715  L 22.327935222672064 29.64955357142857  C 22.327935222672064 30.736979166666668  22.523616734143054 31.53534226190476  22.91497975708502 32.04464285714286  C 23.441295546558706 32.746651785714285  24.17004048582996 33.09765625  25.101214574898787 33.09765625  C 26.072874493927124 33.09765625  26.80161943319838 32.7328869047619  27.287449392712553 32.003348214285715  C 27.530364372469634 31.63169642857143  27.672064777327936 31.260044642857142  27.71255060728745 30.888392857142858  Z M 14.5748987854251 12.28515625  C 15.155195681511474 12.28515625  15.445344129554657 11.803385416666666  15.445344129554657 10.83984375  L 15.445344129554657 6.50390625  C 15.445344129554657 5.554129464285713  15.155195681511474 5.079241071428571  14.5748987854251 5.079241071428571  C 13.994601889338732 5.079241071428571  13.704453441295547 5.554129464285713  13.704453441295547 6.50390625  L 13.704453441295547 10.83984375  C 13.704453441295547 11.803385416666666  13.994601889338732 12.28515625  14.5748987854251 12.28515625  Z M 29.473684210526315 19.119419642857142  C 29.824561403508774 20.66108630952381  30 23.06994047619047  30 26.345982142857142  C 30 29.566964285714285  29.824561403508774 31.975818452380953  29.473684210526315 33.57254464285714  C 29.284750337381915 34.38467261904762  28.89338731443995 35.066034226190474  28.299595141700404 35.616629464285715  C 27.705802968960864 36.167224702380956  27.017543859649123 36.483816964285715  26.234817813765183 36.56640625  C 23.75168690958165 36.85546875  20.006747638326587 37  15 37  C 9.993252361673415 37  6.248313090418354 36.85546875  3.7651821862348176 36.56640625  C 2.9824561403508776 36.483816964285715  2.290823211875844 36.167224702380956  1.6902834008097165 35.616629464285715  C 1.08974358974359 35.066034226190474  0.7017543859649124 34.38467261904762  0.5263157894736842 33.57254464285714  C 0.17543859649122817 32.030877976190474  0 29.62202380952381  0 26.345982142857142  C 0 23.125  0.17543859649122817 20.716145833333332  0.5263157894736842 19.119419642857142  C 0.7152496626180838 18.307291666666664  1.106612685560054 17.625930059523807  1.7004048582995952 17.07533482142857  C 2.294197031039136 16.524739583333332  2.9892037786774632 16.201264880952383  3.785425101214575 16.10491071428571  C 6.255060728744939 15.82961309523809  9.993252361673415 15.691964285714288  15 15.691964285714288  C 20.006747638326587 15.691964285714288  23.75168690958165 15.82961309523809  26.234817813765183 16.10491071428571  C 27.017543859649123 16.201264880952383  27.70917678812416 16.524739583333332  28.309716599190285 17.07533482142857  C 28.910256410256412 17.625930059523807  29.298245614035093 18.307291666666664  29.473684210526315 19.119419642857142  Z M 8.421052631578947 5.430245535714287  L 9.797570850202428 0  L 11.862348178137653 0  L 9.412955465587045 8.23828125  L 9.412955465587045 13.833705357142858  L 7.388663967611336 13.833705357142858  L 7.388663967611336 8.23828125  C 7.199730094466937 7.219680059523807  6.78812415654521 5.760602678571429  6.153846153846153 3.8610491071428585  C 5.654520917678814 2.443266369047618  5.2159244264507425 1.15625  4.838056680161944 0  L 6.983805668016195 0  L 8.421052631578947 5.430245535714287  Z M 16.720647773279353 4.459821428571429  C 17.098515519568153 4.969122023809519  17.28744939271255 5.774367559523807  17.28744939271255 6.875558035714287  L 17.28744939271255 10.488839285714288  C 17.28744939271255 11.603794642857142  17.098515519568153 12.415922619047619  16.720647773279353 12.925223214285712  C 16.207827260458842 13.627232142857142  15.492577597840755 13.978236607142858  14.5748987854251 13.978236607142858  C 13.670715249662619 13.978236607142858  12.962213225371121 13.627232142857142  12.449392712550607 12.925223214285712  C 12.071524966261808 12.402157738095235  11.882591093117409 11.59002976190476  11.882591093117409 10.488839285714288  L 11.882591093117409 6.875558035714287  C 11.882591093117409 5.774367559523807  12.071524966261808 4.969122023809519  12.449392712550607 4.459821428571429  C 12.962213225371121 3.7578125  13.670715249662619 3.4068080357142874  14.5748987854251 3.4068080357142874  C 15.492577597840755 3.4068080357142874  16.207827260458842 3.7578125  16.720647773279353 4.459821428571429  Z M 22.22672064777328 3.5306919642857126  L 24 3.5306919642857126  L 24 13.833705357142858  L 22.22672064777328 13.833705357142858  L 22.22672064777328 12.698102678571429  C 21.5114709851552 13.551525297619047  20.816464237516872 13.978236607142858  20.141700404858298 13.978236607142858  C 19.520917678812417 13.978236607142858  19.12280701754386 13.723586309523807  18.94736842105263 13.214285714285712  C 18.839406207827263 12.883928571428571  18.785425101214575 12.367745535714288  18.785425101214575 11.665736607142858  L 18.785425101214575 3.5306919642857126  L 20.62753036437247 3.5306919642857126  L 20.62753036437247 11.108258928571429  C 20.62753036437247 11.5625  20.634278002699055 11.803385416666666  20.647773279352226 11.830915178571429  C 20.68825910931174 12.133742559523807  20.82995951417004 12.28515625  21.072874493927127 12.28515625  C 21.437246963562753 12.28515625  21.821862348178136 11.989211309523807  22.22672064777328 11.397321428571429  L 22.22672064777328 3.5306919642857126  Z " fill-rule="nonzero" fill="rgba(85, 85, 85, 1)" stroke="none" transform="matrix(1 0 0 1 2662 1974 )" class="fill" />
    <path d="M 18.31983805668016 24.30189732142857  C 18.846153846153847 24.30189732142857  19.10931174089069 24.763020833333332  19.10931174089069 25.685267857142858  L 19.10931174089069 30.04185267857143  C 19.10931174089069 30.964099702380953  18.846153846153847 31.425223214285715  18.31983805668016 31.425223214285715  C 18.00944669365722 31.425223214285715  17.705802968960864 31.27380952380953  17.408906882591094 30.970982142857142  L 17.408906882591094 24.756138392857142  C 17.705802968960864 24.45331101190476  18.00944669365722 24.30189732142857  18.31983805668016 24.30189732142857  Z " stroke-width="0" stroke-dasharray="0" stroke="rgba(255, 255, 255, 0)" fill="none" transform="matrix(1 0 0 1 2662 1974 )" class="stroke" mask="url(#Clip4)" />
    <path d="M 25.040485829959515 24.30189732142857  C 25.647773279352226 24.30189732142857  25.951417004048583 24.76990327380952  25.951417004048583 25.70591517857143  L 25.951417004048583 26.655691964285715  L 24.129554655870447 26.655691964285715  L 24.129554655870447 25.70591517857143  C 24.129554655870447 24.76990327380952  24.4331983805668 24.30189732142857  25.040485829959515 24.30189732142857  Z " stroke-width="0" stroke-dasharray="0" stroke="rgba(255, 255, 255, 0)" fill="none" transform="matrix(1 0 0 1 2662 1974 )" class="stroke" mask="url(#Clip4)" />
    <path d="M 6.396761133603239 32.953125  L 6.396761133603239 21.204799107142858  L 8.562753036437247 21.204799107142858  L 8.562753036437247 19.263950892857142  L 2.246963562753036 19.263950892857142  L 2.246963562753036 21.204799107142858  L 4.37246963562753 21.204799107142858  L 4.37246963562753 32.953125  L 6.396761133603239 32.953125  Z " stroke-width="0" stroke-dasharray="0" stroke="rgba(255, 255, 255, 0)" fill="none" transform="matrix(1 0 0 1 2662 1974 )" class="stroke" mask="url(#Clip4)" />
    <path d="M 12.22672064777328 31.838169642857142  L 12.22672064777328 32.953125  L 14 32.953125  L 14 22.753348214285715  L 12.22672064777328 22.753348214285715  L 12.22672064777328 30.558035714285715  C 11.821862348178138 31.136160714285715  11.437246963562753 31.425223214285715  11.072874493927126 31.425223214285715  C 10.82995951417004 31.425223214285715  10.68825910931174 31.280691964285715  10.647773279352228 30.991629464285715  C 10.634278002699055 30.95033482142857  10.62753036437247 30.709449404761905  10.62753036437247 30.268973214285715  L 10.62753036437247 22.753348214285715  L 8.82591093117409 22.753348214285715  L 8.82591093117409 30.826450892857142  C 8.82591093117409 31.50093005952381  8.879892037786774 32.003348214285715  8.987854251012145 32.33370535714286  C 9.149797570850204 32.843005952380956  9.541160593792172 33.09765625  10.161943319838056 33.09765625  C 10.809716599190283 33.09765625  11.497975708502025 32.67782738095238  12.22672064777328 31.838169642857142  Z " stroke-width="0" stroke-dasharray="0" stroke="rgba(255, 255, 255, 0)" fill="none" transform="matrix(1 0 0 1 2662 1974 )" class="stroke" mask="url(#Clip4)" />
    <path d="M 20.728744939271255 31.96205357142857  C 20.850202429149796 31.590401785714285  20.910931174089068 30.90215773809524  20.910931174089068 29.89732142857143  L 20.910931174089068 25.829799107142858  C 20.910931174089068 24.824962797619047  20.850202429149796 24.14360119047619  20.728744939271255 23.785714285714285  C 20.49932523616734 23.01488095238095  20.020242914979757 22.629464285714285  19.291497975708502 22.629464285714285  C 18.616734143049932 22.629464285714285  17.989203778677464 23.00111607142857  17.408906882591094 23.744419642857142  L 17.408906882591094 19.263950892857142  L 15.607287449392711 19.263950892857142  L 15.607287449392711 32.953125  L 17.408906882591094 32.953125  L 17.408906882591094 31.96205357142857  C 18.016194331983804 32.719122023809526  18.643724696356276 33.09765625  19.291497975708502 33.09765625  C 20.020242914979757 33.09765625  20.49932523616734 32.719122023809526  20.728744939271255 31.96205357142857  Z " stroke-width="0" stroke-dasharray="0" stroke="rgba(255, 255, 255, 0)" fill="none" transform="matrix(1 0 0 1 2662 1974 )" class="stroke" mask="url(#Clip4)" />
    <path d="M 27.71255060728745 30.888392857142858  C 27.739541160593795 30.76450892857143  27.753036437246966 30.365327380952383  27.753036437246966 29.690848214285715  L 27.753036437246966 29.422433035714285  L 25.91093117408907 29.422433035714285  C 25.91093117408907 30.124441964285715  25.8974358974359 30.544270833333332  25.870445344129557 30.681919642857142  C 25.775978407557357 31.177455357142858  25.506072874493928 31.425223214285715  25.060728744939272 31.425223214285715  C 24.43994601889339 31.425223214285715  24.129554655870447 30.95033482142857  24.129554655870447 30.000558035714285  L 24.129554655870447 28.20424107142857  L 27.753036437246966 28.20424107142857  L 27.753036437246966 26.077566964285715  C 27.753036437246966 24.990141369047617  27.57085020242915 24.19177827380952  27.206477732793523 23.68247767857143  C 26.68016194331984 22.98046875  25.964912280701757 22.629464285714285  25.060728744939272 22.629464285714285  C 24.143049932523617 22.629464285714285  23.421052631578945 22.98046875  22.894736842105264 23.68247767857143  C 22.516869095816467 24.19177827380952  22.327935222672064 24.990141369047617  22.327935222672064 26.077566964285715  L 22.327935222672064 29.64955357142857  C 22.327935222672064 30.736979166666668  22.523616734143054 31.53534226190476  22.91497975708502 32.04464285714286  C 23.441295546558706 32.746651785714285  24.17004048582996 33.09765625  25.101214574898787 33.09765625  C 26.072874493927124 33.09765625  26.80161943319838 32.7328869047619  27.287449392712553 32.003348214285715  C 27.530364372469634 31.63169642857143  27.672064777327936 31.260044642857142  27.71255060728745 30.888392857142858  Z " stroke-width="0" stroke-dasharray="0" stroke="rgba(255, 255, 255, 0)" fill="none" transform="matrix(1 0 0 1 2662 1974 )" class="stroke" mask="url(#Clip4)" />
    <path d="M 14.5748987854251 12.28515625  C 15.155195681511474 12.28515625  15.445344129554657 11.803385416666666  15.445344129554657 10.83984375  L 15.445344129554657 6.50390625  C 15.445344129554657 5.554129464285713  15.155195681511474 5.079241071428571  14.5748987854251 5.079241071428571  C 13.994601889338732 5.079241071428571  13.704453441295547 5.554129464285713  13.704453441295547 6.50390625  L 13.704453441295547 10.83984375  C 13.704453441295547 11.803385416666666  13.994601889338732 12.28515625  14.5748987854251 12.28515625  Z " stroke-width="0" stroke-dasharray="0" stroke="rgba(255, 255, 255, 0)" fill="none" transform="matrix(1 0 0 1 2662 1974 )" class="stroke" mask="url(#Clip4)" />
    <path d="M 29.473684210526315 19.119419642857142  C 29.824561403508774 20.66108630952381  30 23.06994047619047  30 26.345982142857142  C 30 29.566964285714285  29.824561403508774 31.975818452380953  29.473684210526315 33.57254464285714  C 29.284750337381915 34.38467261904762  28.89338731443995 35.066034226190474  28.299595141700404 35.616629464285715  C 27.705802968960864 36.167224702380956  27.017543859649123 36.483816964285715  26.234817813765183 36.56640625  C 23.75168690958165 36.85546875  20.006747638326587 37  15 37  C 9.993252361673415 37  6.248313090418354 36.85546875  3.7651821862348176 36.56640625  C 2.9824561403508776 36.483816964285715  2.290823211875844 36.167224702380956  1.6902834008097165 35.616629464285715  C 1.08974358974359 35.066034226190474  0.7017543859649124 34.38467261904762  0.5263157894736842 33.57254464285714  C 0.17543859649122817 32.030877976190474  0 29.62202380952381  0 26.345982142857142  C 0 23.125  0.17543859649122817 20.716145833333332  0.5263157894736842 19.119419642857142  C 0.7152496626180838 18.307291666666664  1.106612685560054 17.625930059523807  1.7004048582995952 17.07533482142857  C 2.294197031039136 16.524739583333332  2.9892037786774632 16.201264880952383  3.785425101214575 16.10491071428571  C 6.255060728744939 15.82961309523809  9.993252361673415 15.691964285714288  15 15.691964285714288  C 20.006747638326587 15.691964285714288  23.75168690958165 15.82961309523809  26.234817813765183 16.10491071428571  C 27.017543859649123 16.201264880952383  27.70917678812416 16.524739583333332  28.309716599190285 17.07533482142857  C 28.910256410256412 17.625930059523807  29.298245614035093 18.307291666666664  29.473684210526315 19.119419642857142  Z " stroke-width="0" stroke-dasharray="0" stroke="rgba(255, 255, 255, 0)" fill="none" transform="matrix(1 0 0 1 2662 1974 )" class="stroke" mask="url(#Clip4)" />
    <path d="M 8.421052631578947 5.430245535714287  L 9.797570850202428 0  L 11.862348178137653 0  L 9.412955465587045 8.23828125  L 9.412955465587045 13.833705357142858  L 7.388663967611336 13.833705357142858  L 7.388663967611336 8.23828125  C 7.199730094466937 7.219680059523807  6.78812415654521 5.760602678571429  6.153846153846153 3.8610491071428585  C 5.654520917678814 2.443266369047618  5.2159244264507425 1.15625  4.838056680161944 0  L 6.983805668016195 0  L 8.421052631578947 5.430245535714287  Z " stroke-width="0" stroke-dasharray="0" stroke="rgba(255, 255, 255, 0)" fill="none" transform="matrix(1 0 0 1 2662 1974 )" class="stroke" mask="url(#Clip4)" />
    <path d="M 16.720647773279353 4.459821428571429  C 17.098515519568153 4.969122023809519  17.28744939271255 5.774367559523807  17.28744939271255 6.875558035714287  L 17.28744939271255 10.488839285714288  C 17.28744939271255 11.603794642857142  17.098515519568153 12.415922619047619  16.720647773279353 12.925223214285712  C 16.207827260458842 13.627232142857142  15.492577597840755 13.978236607142858  14.5748987854251 13.978236607142858  C 13.670715249662619 13.978236607142858  12.962213225371121 13.627232142857142  12.449392712550607 12.925223214285712  C 12.071524966261808 12.402157738095235  11.882591093117409 11.59002976190476  11.882591093117409 10.488839285714288  L 11.882591093117409 6.875558035714287  C 11.882591093117409 5.774367559523807  12.071524966261808 4.969122023809519  12.449392712550607 4.459821428571429  C 12.962213225371121 3.7578125  13.670715249662619 3.4068080357142874  14.5748987854251 3.4068080357142874  C 15.492577597840755 3.4068080357142874  16.207827260458842 3.7578125  16.720647773279353 4.459821428571429  Z " stroke-width="0" stroke-dasharray="0" stroke="rgba(255, 255, 255, 0)" fill="none" transform="matrix(1 0 0 1 2662 1974 )" class="stroke" mask="url(#Clip4)" />
    <path d="M 22.22672064777328 3.5306919642857126  L 24 3.5306919642857126  L 24 13.833705357142858  L 22.22672064777328 13.833705357142858  L 22.22672064777328 12.698102678571429  C 21.5114709851552 13.551525297619047  20.816464237516872 13.978236607142858  20.141700404858298 13.978236607142858  C 19.520917678812417 13.978236607142858  19.12280701754386 13.723586309523807  18.94736842105263 13.214285714285712  C 18.839406207827263 12.883928571428571  18.785425101214575 12.367745535714288  18.785425101214575 11.665736607142858  L 18.785425101214575 3.5306919642857126  L 20.62753036437247 3.5306919642857126  L 20.62753036437247 11.108258928571429  C 20.62753036437247 11.5625  20.634278002699055 11.803385416666666  20.647773279352226 11.830915178571429  C 20.68825910931174 12.133742559523807  20.82995951417004 12.28515625  21.072874493927127 12.28515625  C 21.437246963562753 12.28515625  21.821862348178136 11.989211309523807  22.22672064777328 11.397321428571429  L 22.22672064777328 3.5306919642857126  Z " stroke-width="0" stroke-dasharray="0" stroke="rgba(255, 255, 255, 0)" fill="none" transform="matrix(1 0 0 1 2662 1974 )" class="stroke" mask="url(#Clip4)" />
  </g>
</svg>